<svg width="171" height="45" viewBox="0 0 171 45" fill="none" xmlns="http://www.w3.org/2000/svg">
<path d="M36.5729 44.9305H8.59417C3.99631 44.9305 0.27002 41.2414 0.27002 36.6895V8.99055C0.27002 4.43867 3.99631 0.749634 8.59417 0.749634H36.5729C41.1708 0.749634 44.8971 4.43867 44.8971 8.99055V36.6895C44.8971 41.2414 41.1708 44.9305 36.5729 44.9305Z" fill="#FF6D6D"/>
<path d="M30.6234 23.2465C31.4191 24.2344 31.8234 25.3849 31.8234 26.6854C31.8234 28.5987 31.1792 30.0993 29.8908 31.1623C28.6023 32.2252 26.7581 32.7754 24.3581 32.7754H13.874V10.4537H24.1055C26.4045 10.4537 28.1729 10.9539 29.4234 11.9418C30.6739 12.9297 31.3055 14.3428 31.3055 16.1685C31.3055 17.5191 30.9392 18.6321 30.2192 19.5324C29.4992 20.4328 28.5518 21.0081 27.3771 21.2832C28.7539 21.6083 29.8276 22.2586 30.6234 23.2465ZM19.3182 19.5825H22.8929C24.7876 19.5825 25.735 18.7821 25.735 17.1815C25.735 15.5808 24.7624 14.7805 22.8298 14.7805H19.3182V19.5825ZM26.2402 25.9351C26.2402 25.1348 25.975 24.5095 25.4445 24.0593C24.914 23.6091 24.1561 23.384 23.1834 23.384H19.3308V28.3986H23.2213C25.2297 28.3861 26.2402 27.5733 26.2402 25.9351Z" fill="white"/>
<path d="M70.7536 32.7754L65.8778 24.3469H64.6399V32.7754H59.1831V10.4537H68.4925C70.2736 10.4537 71.7894 10.7538 73.0146 11.3666C74.2525 11.9793 75.1746 12.8172 75.7935 13.8801C76.4125 14.943 76.7156 16.156 76.7156 17.5316C76.7156 19.1573 76.2609 20.5329 75.364 21.6708C74.4546 22.8088 73.1535 23.5841 71.423 24.0093L76.7788 32.7879H70.7536V32.7754ZM64.6399 20.6579H68.0125C69.0988 20.6579 69.8946 20.4203 70.3999 19.9451C70.9051 19.4699 71.1704 18.7696 71.1704 17.8442C71.1704 16.9564 70.9051 16.2686 70.3872 15.7559C69.8693 15.2557 69.0736 14.9931 68.0125 14.9931H64.6399V20.6579Z" fill="#FF6D6D"/>
<path d="M101.398 28.711H92.9474L91.5453 32.7877H85.8105L94.0716 10.6285H100.349L108.61 32.7877H102.813L101.398 28.711ZM99.9957 24.5968L97.1915 16.3934L94.3495 24.5968H99.9957Z" fill="#FF6D6D"/>
<path d="M138.711 32.7754H133.254L124.134 19.0697V32.7754H118.677V10.4537H124.134L133.254 24.2844V10.4537H138.711V32.7754Z" fill="#FF6D6D"/>
<path d="M169.305 27.3982C168.357 29.0864 166.993 30.4119 165.225 31.3623C163.444 32.3127 161.359 32.7879 158.959 32.7879H150.446V10.4662H158.959C161.385 10.4662 163.481 10.9289 165.237 11.8543C167.006 12.7796 168.357 14.0802 169.305 15.7684C170.252 17.4566 170.719 19.3824 170.719 21.5833C170.719 23.7592 170.239 25.6975 169.305 27.3982ZM163.431 26.2727C164.606 25.1598 165.199 23.5841 165.199 21.5708C165.199 19.5449 164.606 17.9818 163.431 16.8688C162.256 15.7559 160.602 15.1931 158.467 15.1931H155.89V27.9484H158.467C160.602 27.9484 162.256 27.3982 163.431 26.2727Z" fill="#FF6D6D"/>
</svg>
