<svg width="152" height="46" viewBox="0 0 152 46" fill="none" xmlns="http://www.w3.org/2000/svg">
<path d="M21.837 9.20413L22.954 8.96824C23.2369 8.96824 23.4752 9.02721 23.639 9.14516C23.8028 9.2631 23.8922 9.38105 23.8922 9.48425C23.8922 9.58746 23.8624 9.74963 23.8177 9.94129C23.773 10.133 23.3561 12.1086 22.5817 15.8386C21.8073 19.5687 21.2414 22.3552 20.8839 24.1833C22.6114 21.8539 24.6368 18.9937 26.9451 15.588C29.2534 12.1823 30.6086 9.92655 30.9958 8.80606C31.1149 8.45222 31.2787 8.18684 31.4723 7.99518C31.6659 7.80351 31.8446 7.68557 31.9936 7.65608C32.1425 7.62659 32.3808 7.59711 32.6935 7.59711C33.0062 7.59711 33.3785 7.67083 33.8104 7.80352C34.2423 7.93621 34.4657 8.15735 34.4657 8.48171C34.4657 9.07144 33.5721 10.7964 31.8 13.6271C30.0278 16.4578 27.9876 19.4655 25.6941 22.65C23.4007 25.8346 21.4945 28.3557 19.9606 30.2134C19.6926 30.5377 19.35 30.7146 18.9628 30.7146C18.5757 30.7146 18.1587 30.6409 17.7268 30.5082C17.2949 30.3755 17.0715 30.1396 17.0715 29.7858C17.0715 28.68 18.0544 23.343 20.0202 13.804C18.3374 15.9566 16.2971 18.9642 13.8995 22.8122C11.3976 26.7929 9.98283 29.2698 9.6552 30.2134C9.47649 30.7883 9.268 31.1274 9.02973 31.2159C8.86591 31.2896 8.6872 31.3191 8.50849 31.3191L7.30222 31.4518C7.06395 31.4518 6.85545 31.3928 6.64696 31.2601C6.45336 31.1274 6.34912 30.9948 6.34912 30.8473C6.34912 30.4492 6.91503 29.2403 8.03195 27.2352C9.14887 25.2301 10.4743 23.0481 11.9784 20.6892C13.4825 18.3302 15.0462 16.045 16.6843 13.8188C18.3225 11.5925 19.5883 10.0887 20.4819 9.33682C20.6606 9.17464 20.8691 9.10093 21.1073 9.10093L21.837 9.20413Z" fill="#FF6D6D"/>
<path d="M39.737 19.2003C40.5114 19.2003 40.8986 19.4657 40.8986 19.9817C40.8986 20.2618 40.839 20.4682 40.705 20.6009C40.571 20.7336 40.288 21.1611 39.8562 21.913C39.4243 22.6502 38.9477 23.5938 38.4265 24.7585C37.9053 25.9085 37.5628 26.8963 37.4138 27.7072C37.3841 27.8104 37.3692 27.9431 37.3692 28.1347C37.3692 28.695 37.5181 28.9604 37.8308 28.9604C38.1436 28.9604 38.501 28.8129 38.9179 28.5328C39.3349 28.2379 39.7072 27.9431 40.0349 27.604C40.3625 27.2796 40.6752 26.9405 40.988 26.6014C41.3007 26.2623 41.4794 26.0559 41.539 26.0117C41.5986 25.9675 41.6879 25.938 41.807 25.938C42.0006 25.938 42.1198 26.0854 42.1645 26.3803C42.2091 26.6751 42.224 26.97 42.224 27.2944C42.224 27.6187 42.1942 27.8251 42.1347 27.9431C41.8368 28.518 41.1965 29.211 40.1838 30.0219C39.186 30.8328 38.2627 31.2308 37.4436 31.2308C36.6246 31.2308 36.014 30.9802 35.6417 30.4937C35.2694 30.0071 35.0609 29.4469 35.0609 28.8572C35.0609 28.2527 35.1651 27.7367 35.3736 27.2796C34.5248 28.3706 33.5567 29.2847 32.4696 30.0514C31.3676 30.8033 30.489 31.1866 29.789 31.1866C29.0891 31.1866 28.5381 30.9802 28.0913 30.5674C27.5254 30.0514 27.2573 29.3437 27.2573 28.4296C27.2573 27.5155 27.4658 26.6014 27.8828 25.6726C28.2998 24.7585 28.8359 23.9034 29.5061 23.1515C30.1762 22.3848 30.9208 21.6919 31.725 21.0727C33.4078 19.7605 34.9715 19.1118 36.4012 19.1118C36.9522 19.1118 37.399 19.2003 37.7415 19.3772C38.084 19.5541 38.3074 19.79 38.3967 20.0554C38.635 19.6868 38.8435 19.4657 39.0222 19.3625C39.1562 19.2445 39.4094 19.2003 39.737 19.2003ZM37.7117 20.881C35.9693 20.881 34.1673 21.8393 32.3058 23.756C31.6505 24.4489 31.04 25.2598 30.4741 26.2181C29.9081 27.1764 29.6401 27.8251 29.6401 28.179C29.6401 28.5328 29.7443 28.7097 29.9528 28.7097C30.2358 28.7097 31.0251 28.1495 32.3356 27.0437C33.6461 25.938 34.5099 25.1123 34.9268 24.5816C35.4034 23.9919 36.3267 22.7534 37.7117 20.881Z" fill="#FF6D6D"/>
<path d="M51.3235 11.2094L51.9489 11.3568C52.0383 11.3568 52.1277 11.4011 52.1872 11.4895C52.2617 11.578 52.2915 11.6665 52.2915 11.7402C52.2915 11.8139 52.1872 12.035 51.9639 12.3889C51.7405 12.7427 51.5022 13.1408 51.2043 13.5831C50.9065 14.0254 50.7576 14.276 50.7427 14.3203C51.532 14.2613 52.0979 14.2318 52.4255 14.2318C52.7531 14.2318 52.9765 14.2613 53.1105 14.3055C53.2297 14.3497 53.3786 14.4824 53.5275 14.6888C53.6913 14.8952 53.8254 15.0574 53.9594 15.1606C54.0934 15.2638 54.153 15.426 54.153 15.6324C54.153 15.8388 54.019 16.0305 53.7658 16.1632C53.5126 16.3106 53.2297 16.3991 52.9318 16.4285C50.564 16.6644 49.2684 16.7824 49.0301 16.7971C48.211 18.0503 47.0494 19.9964 45.5751 22.6355C44.1007 25.2745 43.3114 26.9405 43.2221 27.604C43.1774 27.9136 43.1625 28.1495 43.1625 28.3411C43.1625 28.7392 43.371 28.9309 43.788 28.9309C44.205 28.9309 44.6666 28.7687 45.173 28.4591C45.6793 28.1347 46.1559 27.7956 46.5728 27.4271C47.7196 26.4245 48.3301 25.9085 48.4046 25.9085C48.6727 25.9085 48.8067 26.3655 48.8067 27.2649C48.8067 27.7514 48.5833 28.1937 48.1217 28.5918C47.0941 29.4616 46.2303 30.1251 45.5304 30.5674C44.8305 31.0097 44.1305 31.2308 43.4157 31.2308C43.2668 31.2308 43.1179 31.2161 42.9838 31.1866C42.1648 31.0392 41.5691 30.7443 41.1967 30.302C40.8096 29.8597 40.6309 29.27 40.6309 28.5328C40.6309 27.7956 40.8542 26.8816 41.301 25.82C41.7478 24.7585 42.2988 23.6233 42.9689 22.4291C44.071 20.4682 45.173 18.64 46.2601 16.9298L45.6793 17.0035C44.5028 17.1362 43.8178 17.1952 43.6242 17.1952H43.4902C43.1923 17.1952 42.9094 17.1362 42.6413 17.0183C42.3732 16.9003 42.2243 16.7529 42.2243 16.5907C42.2243 16.4138 42.2988 16.2516 42.4477 16.0894C42.5966 15.9273 42.686 15.7946 42.7158 15.7061C42.7902 15.485 43.0583 15.2343 43.5199 14.969C43.9816 14.7036 44.3241 14.5561 44.5624 14.5414C44.8007 14.5267 45.0241 14.5119 45.2474 14.4972C45.4708 14.4824 45.7091 14.4824 45.9772 14.4677C46.2452 14.4529 46.4537 14.4529 46.6026 14.4382L47.9727 14.3792C48.8216 13.1113 49.4173 12.2857 49.73 11.9318C50.0576 11.5633 50.2363 11.3716 50.281 11.3421C50.3257 11.3126 50.4299 11.2831 50.5937 11.2831L51.3235 11.2094Z" fill="#FF6D6D"/>
<path d="M60.4821 25.9376C60.6757 25.9376 60.7948 26.085 60.8395 26.3799C60.8842 26.6748 60.8991 26.9696 60.8991 27.294C60.8991 27.6183 60.8693 27.8248 60.8097 27.9427C60.5119 28.5029 59.8715 29.1959 58.8738 30.0068C57.876 30.8176 56.9229 31.2305 56.0293 31.2305C55.4783 31.2305 54.972 31.0683 54.4954 30.7439C54.0338 30.4196 53.7955 29.8446 53.7955 29.0337C53.7955 28.2228 54.0189 27.4119 54.4508 26.6305C51.9191 29.7709 49.9533 31.3337 48.5087 31.3337C47.9428 31.3337 47.4812 31.1273 47.1238 30.7292C46.7664 30.3311 46.6025 29.9183 46.6025 29.476C46.6025 29.0485 46.6621 28.6062 46.7812 28.1491C46.9004 27.6921 47.0344 27.2793 47.1685 26.9107C47.3025 26.5421 47.511 26.0998 47.779 25.569C48.0471 25.0383 48.2556 24.6549 48.3747 24.4043C48.4939 24.1537 48.7172 23.7998 49.0151 23.3133C49.3129 22.8268 49.6852 22.1633 50.1618 21.3377C50.6383 20.5121 51.0255 19.8928 51.3383 19.4948C51.651 19.0967 51.9488 18.8903 52.2467 18.8903C52.5445 18.8903 52.7977 19.0083 53.0211 19.2441C53.2445 19.48 53.3636 19.6864 53.3636 19.8339C53.3636 19.9813 53.0211 20.6595 52.3361 21.8685C50.3256 25.4806 49.3129 27.5741 49.3129 28.1786C49.3129 28.326 49.3725 28.3997 49.4767 28.3997C49.9682 28.3997 51.1894 27.353 53.1253 25.2594C55.0613 23.1659 56.1931 21.8242 56.5059 21.2345C56.8186 20.6448 57.1016 20.1435 57.3994 19.7454C57.6824 19.3473 57.9058 19.0967 58.0547 19.0083C58.4866 18.7281 59.0525 18.5807 59.7524 18.5512C59.8715 18.5512 59.946 18.5512 60.0056 18.566C60.0651 18.5807 60.1396 18.6692 60.214 18.8166C60.2885 18.964 60.3332 19.0967 60.3332 19.1999C60.2438 19.48 59.8417 20.2319 59.112 21.4556C58.3972 22.6793 57.9951 23.3723 57.9207 23.5197C56.7144 25.9818 56.1187 27.5889 56.1187 28.326C56.1187 28.7536 56.2825 28.96 56.6101 28.96C57.2058 28.8863 57.9206 28.4145 58.7546 27.5594C59.0673 27.2498 59.3652 26.9254 59.663 26.6011C59.9609 26.2767 60.1545 26.085 60.214 26.0408C60.2885 25.9671 60.3779 25.9376 60.4821 25.9376Z" fill="#FF6D6D"/>
<path d="M64.9051 22.4437C67.3028 19.7457 69.3579 18.3893 71.0407 18.3893C71.4577 18.3893 71.8002 18.5073 72.0683 18.7579C72.3364 19.0085 72.4704 19.3182 72.4704 19.7162C72.4704 20.1143 72.1874 20.763 71.6215 21.6918C71.0556 22.6059 70.5344 23.3873 70.0578 24.0213C69.8047 24.3456 69.5217 24.5078 69.1941 24.5078C68.8813 24.5078 68.6282 24.3899 68.4495 24.154C68.2708 23.9181 68.1814 23.6527 68.1814 23.3431C68.1814 22.6501 68.5537 21.854 69.3132 20.9841L69.2834 20.9547C68.9409 20.9841 68.1218 21.6476 66.7815 22.9155C65.4561 24.1982 64.3243 25.3482 63.3861 26.3507C62.4628 27.368 61.4501 28.5917 60.3481 30.0513C60.0354 30.4788 59.7673 30.7 59.5439 30.7C59.3205 30.7 59.0376 30.6263 58.6802 30.4936C58.3228 30.3609 58.0994 30.2577 58.0249 30.1987C57.9504 30.1397 57.9058 30.0365 57.9058 29.8891C57.9058 29.7564 57.9504 29.5795 58.0249 29.4026C58.0994 29.2109 58.2632 28.9455 58.4717 28.6064C58.6802 28.2673 59.0227 27.7071 59.4695 26.9404C59.9162 26.1738 60.6013 25.0091 61.5395 23.461C62.4777 21.913 63.0287 20.9694 63.2223 20.6451C63.6095 19.9816 63.9222 19.4951 64.1754 19.2002C64.6371 18.6252 65.4115 18.3451 66.4986 18.3451C66.7369 18.3451 66.8709 18.4925 66.8709 18.8021C66.8709 19.2739 66.4241 20.1733 65.5455 21.4707L64.9051 22.4437Z" fill="#FF6D6D"/>
<path d="M81.3313 19.3774C81.3313 20.0409 81.0632 20.6306 80.5122 21.1319C79.9612 21.6331 79.3506 21.8838 78.6507 21.8838C78.4273 21.8838 78.2784 21.8248 78.2039 21.7216C78.1295 21.6184 78.0997 21.471 78.0997 21.3088C78.0997 21.1466 78.1146 20.9697 78.1592 20.8075C77.7869 20.9255 77.3848 21.1171 76.9381 21.3678C76.4913 21.6184 75.9403 21.987 75.285 22.4882C74.6298 22.9895 74.3022 23.3434 74.3022 23.594C74.3022 23.6677 74.4213 23.7119 74.6596 23.7119C74.8978 23.7119 75.2702 23.6235 75.7616 23.4613C76.253 23.2991 76.6104 23.2107 76.804 23.2107C76.9976 23.2107 77.1317 23.2254 77.1912 23.2402C77.3253 23.3139 77.4593 23.4613 77.6231 23.6972C77.772 23.9331 77.8465 24.1248 77.8465 24.2574C77.8465 24.3901 77.7125 24.5671 77.4444 24.7882C77.1764 25.0094 76.8785 25.1715 76.5509 25.2895C76.2084 25.4074 75.985 25.4959 75.8807 25.5549C73.7363 26.7491 72.664 27.5599 72.664 28.0022C72.664 28.7836 73.3342 29.1817 74.6894 29.1817C75.5531 29.1817 76.4317 28.9163 77.2955 28.3708C78.0401 27.9138 78.7103 27.442 79.306 26.9555C79.9016 26.4837 80.2739 26.1888 80.4378 26.0709C80.6016 25.9529 80.7207 25.9087 80.7952 25.9087C81.0632 25.9087 81.1973 26.2036 81.1973 26.7933C81.1973 27.383 81.1675 27.7664 81.093 27.9433C81.0186 28.1349 80.825 28.3561 80.4824 28.6362C78.3082 30.3907 76.2382 31.2753 74.3022 31.2753C73.2597 31.2753 72.4406 31.1278 71.8151 30.8477C70.6684 30.3317 70.1025 29.5503 70.1025 28.4888C70.1025 27.1029 71.0705 26.0414 73.0214 25.3337C72.6342 25.1568 72.3811 24.9504 72.2768 24.6703C72.1577 24.4049 72.113 23.9773 72.113 23.3876C72.113 22.7979 72.3959 22.1786 72.947 21.5152C73.498 20.8517 74.183 20.3062 74.9872 19.8934C76.7743 18.9351 78.3826 18.4633 79.7825 18.4633C80.125 18.4633 80.4526 18.537 80.8101 18.6992C81.1675 18.8614 81.3313 19.0825 81.3313 19.3774Z" fill="#FF6D6D"/>
<path d="M116.09 9.11571H116.283C116.343 9.11571 116.388 9.11571 116.402 9.13046C116.417 9.1452 116.432 9.1452 116.462 9.15994C116.492 9.15994 116.507 9.17469 116.536 9.20417C116.581 9.2484 116.656 9.29263 116.745 9.33686C116.864 9.42532 116.924 9.52853 116.924 9.64647C116.924 9.76442 116.805 10.0151 116.566 10.3984C116.328 10.7817 115.717 11.7105 114.72 13.2144C112.441 16.6643 110.401 19.8783 108.599 22.827C105.486 27.9577 103.908 30.5378 103.878 30.5672C103.848 30.5967 103.833 30.6262 103.819 30.6557C103.804 30.7147 103.774 30.7442 103.699 30.7442L103.491 30.6999L103.074 30.8031L102.836 30.7589L102.582 30.8031H102.493L101.644 30.9211C101.138 30.9211 100.885 30.7442 100.885 30.4051C100.885 30.2576 100.929 30.0807 101.019 29.8743C101.331 29.1371 102.925 26.4686 105.784 21.8392C103.908 21.8834 102.046 21.9129 100.215 21.9129L96.9383 21.8982C96.4022 22.7533 95.6576 23.9622 94.7193 25.5398C92.694 28.975 91.6218 30.6999 91.4877 30.7294C91.3537 30.7589 91.2495 30.7884 91.1601 30.7884C91.0707 30.7884 90.9963 30.7442 90.9367 30.641C90.8623 30.5525 90.8176 30.4935 90.7878 30.4935C90.758 30.4935 90.7133 30.5083 90.624 30.5525C90.5495 30.5967 90.4304 30.6115 90.2666 30.6115L89.9092 30.5967L89.7751 30.5083C89.7602 30.5083 89.7453 30.523 89.7305 30.5525C89.7156 30.582 89.6709 30.5967 89.6113 30.5967C89.1794 30.5967 88.9561 30.4198 88.9561 30.0512C88.9561 29.8153 89.0454 29.491 89.2092 29.0929C89.3879 28.6948 89.6113 28.2673 89.8943 27.8102C90.1772 27.3532 90.892 26.2474 92.0685 24.5225C93.2301 22.7975 93.8109 21.9277 93.8109 21.9129C93.6173 21.8982 93.3939 21.8982 93.1408 21.8834C92.6195 21.8834 92.2621 21.8687 92.0387 21.8245C91.4579 21.7213 91.0559 21.2495 90.8474 20.4091C90.7282 19.9963 90.6836 19.7309 90.6984 19.5982C90.6984 19.3328 90.8176 19.1854 91.0559 19.1854L91.4579 19.2886C91.6664 19.3033 92.143 19.3181 92.9174 19.3623C93.6918 19.4065 94.2428 19.4213 94.5853 19.4213L95.4491 19.3918C96.7745 17.3425 98.3531 15.013 100.2 12.4182C98.8594 13.5092 97.3702 14.0547 95.732 14.0547C94.9576 14.0547 94.2875 13.8778 93.7365 13.5092C93.1705 13.1406 92.9025 12.6689 92.9025 12.1086C92.9025 11.5484 93.111 11.1061 93.5429 10.767C93.9747 10.4426 94.3768 10.2804 94.764 10.2804C95.1512 10.2804 95.3448 10.3394 95.3448 10.4574C95.3448 10.5016 95.2852 10.5458 95.181 10.59C95.0768 10.649 95.0172 10.6932 95.0172 10.7375C95.0172 10.8997 95.1959 11.0471 95.5533 11.165C95.9107 11.283 96.3128 11.3567 96.7596 11.3567C97.2063 11.3567 97.7425 11.224 98.3977 10.9734C99.053 10.7227 99.7231 10.3836 100.423 9.98557C101.406 9.42532 102.18 8.95354 102.746 8.58495C103.074 8.42278 103.372 8.34906 103.67 8.34906C103.967 8.34906 104.161 8.37855 104.295 8.45226C104.429 8.51124 104.518 8.58495 104.578 8.64393C104.638 8.7029 104.712 8.79136 104.772 8.89456C104.846 8.99777 104.906 9.08623 104.98 9.13046C105.04 9.18943 105.084 9.2484 105.084 9.32212C105.084 9.39584 105.04 9.49904 104.965 9.66122C104.891 9.80865 104.504 10.4279 103.804 11.5041C103.104 12.5804 102.195 13.9515 101.093 15.6175C99.9912 17.2835 99.187 18.5072 98.6807 19.3033C101.406 19.3033 104.34 19.2591 107.497 19.1559C111.339 13.1554 113.364 10.0151 113.573 9.72019C113.781 9.42532 113.975 9.23366 114.154 9.1452C114.332 9.05674 114.541 9.01251 114.794 9.01251L116.09 9.11571Z" fill="#FF6D6D"/>
<path d="M121.064 19.1708C121.377 19.1708 121.689 19.3035 122.002 19.5836C122.33 19.8637 122.479 20.2766 122.479 20.8368C122.479 21.397 122.285 22.1195 121.883 23.0188C121.481 23.9034 120.945 24.8175 120.245 25.7463C119.56 26.6604 118.785 27.5303 117.966 28.3412C117.132 29.152 116.239 29.8155 115.286 30.3315C114.318 30.8475 113.454 31.1129 112.665 31.1129C111.875 31.1129 111.25 30.8623 110.773 30.3757C110.297 29.8892 110.059 29.211 110.059 28.3412C110.059 27.4713 110.282 26.4982 110.714 25.4515C111.146 24.3899 111.697 23.4611 112.382 22.6502C113.067 21.8393 113.797 21.1169 114.601 20.4682C116.254 19.1413 117.713 18.4926 118.964 18.4926C119.53 18.4926 119.947 18.6253 120.23 18.9054C120.334 18.9939 120.379 19.0824 120.379 19.1413V19.2298C120.543 19.1708 120.766 19.1708 121.064 19.1708ZM119.53 21.1759H119.426C119.068 21.1759 118.89 20.9253 118.89 20.4093C118.145 20.6451 117.371 21.0727 116.552 21.6772C115.733 22.2816 115.003 23.0041 114.362 23.8297C113.052 25.481 112.397 26.8816 112.382 28.0168C112.382 28.577 112.59 28.8572 113.007 28.8572C113.424 28.8572 114.05 28.577 114.869 28.0463C115.688 27.5155 116.507 26.7341 117.326 25.7168C118.13 24.7143 118.741 23.8297 119.143 23.0925C119.545 22.3554 119.753 21.8541 119.753 21.574C119.739 21.3086 119.664 21.1759 119.53 21.1759Z" fill="#FF6D6D"/>
<path d="M122.151 30.7736L121.406 30.7441H121.138C121.034 30.7146 120.93 30.6556 120.811 30.5672C120.691 30.4787 120.602 30.405 120.542 30.3755C120.483 30.346 120.453 30.2576 120.453 30.1544C120.453 30.0512 120.498 29.8595 120.572 29.6089C122.553 25.2891 124.474 21.8244 126.336 19.2443C126.544 18.9642 126.872 18.743 127.318 18.5956C127.765 18.4482 128.212 18.3745 128.644 18.3745C128.897 18.3745 129.031 18.5661 129.031 18.9642C129.031 19.0821 128.986 19.2296 128.912 19.4065C128.837 19.5982 128.629 19.893 128.301 20.3206C127.974 20.7481 127.587 21.2347 127.14 21.7654C126.693 22.2962 126.44 22.6205 126.38 22.709C127.78 21.2789 129.031 20.2174 130.163 19.5097C131.295 18.8168 132.099 18.4629 132.605 18.4629C133.112 18.4629 133.499 18.6103 133.767 18.8905C134.035 19.1706 134.169 19.4802 134.169 19.8046C134.169 20.1289 134.139 20.409 134.094 20.6154C134.05 20.8366 133.96 21.0577 133.841 21.2936C133.722 21.5295 133.618 21.7359 133.529 21.8981C133.439 22.0603 133.29 22.2814 133.097 22.5468C132.888 22.8122 132.754 23.0039 132.68 23.1071C132.605 23.2103 132.441 23.4019 132.203 23.682C131.965 23.9622 131.831 24.1243 131.816 24.1538C132.099 23.8737 132.501 23.4609 133.007 22.9007C133.514 22.3404 133.945 21.8834 134.303 21.5148C134.66 21.1462 135.092 20.7186 135.628 20.2469C136.164 19.7751 136.656 19.3917 137.103 19.1116C138.205 18.4334 139.322 18.0796 140.453 18.0796C140.841 18.0796 141.168 18.1975 141.436 18.4482C141.704 18.6988 141.838 18.9789 141.838 19.318C141.838 19.6571 141.421 20.468 140.602 21.7359C139.783 23.0039 138.949 24.2865 138.13 25.5692C137.311 26.8519 136.894 27.6627 136.894 28.0018C136.894 28.4589 136.984 28.739 137.147 28.8275C137.326 28.9159 137.535 28.9454 137.773 28.9307C138.011 28.9159 138.368 28.7538 138.8 28.4589C139.247 28.164 139.634 27.8692 139.977 27.5448C140.543 27.0435 141.049 26.557 141.541 26.0852C141.645 25.9968 141.749 25.9525 141.883 25.9525C142.077 25.9525 142.196 26.1 142.24 26.3948C142.285 26.6897 142.3 26.9846 142.3 27.3089C142.3 27.6333 142.27 27.8397 142.211 27.9576C141.913 28.5179 141.258 29.2108 140.26 30.0364C139.247 30.8473 138.279 31.2601 137.356 31.2601C137.237 31.2601 137.162 31.2601 137.118 31.2454C136.075 31.1422 135.345 30.862 134.943 30.3903C134.541 29.9185 134.348 29.3582 134.348 28.7243C134.348 28.0903 134.571 27.2942 135.018 26.3801C135.465 25.466 135.941 24.6256 136.477 23.8885C137.013 23.1513 137.49 22.4731 137.937 21.8686C138.383 21.2641 138.607 20.9398 138.607 20.8956C138.607 20.8513 138.562 20.8218 138.488 20.8218C138.175 20.8218 137.475 21.3231 136.373 22.3404C134.511 24.0654 132.903 25.7314 131.548 27.3237C131.19 27.7512 130.342 28.8127 129.016 30.5377C128.867 30.7441 128.614 30.8473 128.286 30.8473C127.959 30.8473 127.616 30.7883 127.259 30.6556C126.901 30.5229 126.723 30.3608 126.723 30.1691C126.723 30.0659 127.527 28.6505 129.15 25.923C130.773 23.1955 131.578 21.7064 131.578 21.4706C131.578 21.2199 131.429 21.102 131.131 21.102C130.833 21.102 130.208 21.5443 129.269 22.4289C126.693 24.8615 124.697 27.2942 123.283 29.6973C123.193 29.8448 123.015 30.0659 122.747 30.3608C122.478 30.6556 122.24 30.7736 122.151 30.7736Z" fill="#FF6D6D"/>
<path d="M151.683 19.3774C151.683 20.0409 151.415 20.6306 150.864 21.1319C150.313 21.6331 149.702 21.8838 149.002 21.8838C148.779 21.8838 148.63 21.8248 148.555 21.7216C148.481 21.6184 148.451 21.471 148.451 21.3088C148.451 21.1466 148.466 20.9697 148.511 20.8075C148.138 20.9255 147.736 21.1171 147.29 21.3678C146.843 21.6184 146.292 21.987 145.637 22.4882C144.981 22.9895 144.654 23.3434 144.654 23.594C144.654 23.6677 144.773 23.7119 145.011 23.7119C145.249 23.7119 145.622 23.6235 146.113 23.4613C146.605 23.2991 146.962 23.2107 147.156 23.2107C147.349 23.2107 147.483 23.2254 147.543 23.2402C147.677 23.3139 147.811 23.4613 147.975 23.6972C148.124 23.9331 148.198 24.1248 148.198 24.2574C148.198 24.3901 148.064 24.5671 147.796 24.7882C147.528 25.0094 147.23 25.1715 146.902 25.2895C146.56 25.4074 146.337 25.4959 146.232 25.5549C144.088 26.7491 143.016 27.5599 143.016 28.0022C143.016 28.7836 143.686 29.1817 145.041 29.1817C145.905 29.1817 146.783 28.9163 147.647 28.3708C148.392 27.9138 149.062 27.442 149.657 26.9555C150.253 26.4837 150.626 26.1888 150.789 26.0709C150.953 25.9529 151.072 25.9087 151.147 25.9087C151.415 25.9087 151.549 26.2036 151.549 26.7933C151.549 27.383 151.519 27.7664 151.445 27.9433C151.37 28.1349 151.177 28.3561 150.834 28.6362C148.66 30.3907 146.59 31.2753 144.654 31.2753C143.611 31.2753 142.792 31.1278 142.167 30.8477C141.02 30.3317 140.454 29.5503 140.454 28.4888C140.454 27.1029 141.422 26.0414 143.373 25.3337C142.986 25.1568 142.733 24.9504 142.628 24.6703C142.509 24.4049 142.465 23.9773 142.465 23.3876C142.465 22.7979 142.747 22.1786 143.299 21.5152C143.85 20.8517 144.535 20.3062 145.339 19.8934C147.126 18.9351 148.734 18.4633 150.134 18.4633C150.477 18.4633 150.804 18.537 151.162 18.6992C151.519 18.8614 151.683 19.0825 151.683 19.3774Z" fill="#FF6D6D"/>
<path d="M0.719727 34.8572C4.63639 36.479 8.6275 37.7322 12.6931 38.6905C16.7289 39.693 20.8391 40.4007 24.9494 40.843C27.0045 41.1232 29.0746 41.1526 31.1148 41.3443C33.1848 41.359 35.2399 41.5212 37.2951 41.4033L40.3778 41.3296C41.4053 41.3148 42.4329 41.1821 43.4604 41.1232C44.488 41.0347 45.5156 40.9905 46.5282 40.8578L49.5812 40.4302C53.6765 39.9879 57.6528 39.0443 61.6141 37.9091C65.6201 36.8181 69.4027 35.3733 73.4087 33.8694C77.5041 32.3804 81.942 31.4073 86.4395 31.8791C88.6584 32.1592 90.8922 32.8669 92.7091 34.1643C94.5408 35.447 95.8514 37.2751 96.6853 39.1918C95.4344 37.4816 93.8707 36.0809 92.0687 35.2111C90.2668 34.3412 88.2861 33.9874 86.3203 34.0464C82.3441 34.1053 78.4274 35.4175 74.749 37.0687C71.0111 38.8969 66.9604 40.5482 62.8799 41.9193C58.7697 43.2314 54.5254 44.2782 50.2215 44.809C41.6585 45.9295 32.887 45.9442 24.4282 44.2487C20.1839 43.4821 16.0438 42.2879 12.0378 40.7693C8.06159 39.1918 4.17473 37.3489 0.719727 34.8572Z" fill="#FF6D6D"/>
<path d="M143.134 10.31C139.813 8.9094 136.433 7.81839 133.007 6.96328C129.597 6.06394 126.142 5.42998 122.672 4.98768C120.945 4.7223 119.187 4.66333 117.46 4.45692C115.718 4.41269 113.99 4.23577 112.248 4.30948C111.384 4.32423 110.505 4.32423 109.641 4.30948C108.778 4.30948 107.899 4.39794 107.035 4.42743C106.172 4.4864 105.293 4.50115 104.429 4.58961L101.838 4.89922C98.3681 5.17934 95.0024 5.88702 91.6368 6.75688C88.2265 7.56776 84.9948 8.71774 81.5547 9.86772C78.0253 11.0324 74.198 11.7401 70.3558 11.2094C68.4645 10.8997 66.5582 10.2363 65.0541 9.05683C63.5202 7.89211 62.4778 6.29983 61.8374 4.63384C62.8948 6.09343 64.2053 7.28764 65.7094 8.0248C67.2135 8.76197 68.8665 9.07158 70.5196 9.05683C73.8554 9.05683 77.1615 7.99531 80.2889 6.66842C83.4758 5.1646 86.9755 3.8377 90.4603 2.74669C93.9749 1.69992 97.6383 0.903779 101.302 0.520453C108.614 -0.246199 116.09 -0.06928 123.253 1.61146C126.842 2.36337 130.342 3.51335 133.692 4.9287C137.058 6.37355 140.305 8.05429 143.134 10.31Z" fill="#FF6D6D"/>
</svg>
