<svg width="123" height="50" viewBox="0 0 123 50" fill="none" xmlns="http://www.w3.org/2000/svg">
<path d="M0.682617 30.6488V0.484009H18.6278V30.6341H0.682617V30.6488ZM16.4535 23.631L16.9152 20.299L15.2472 20.1368L14.7409 22.7022C13.6984 23.2182 12.4177 23.4688 10.8838 23.4688C8.7989 23.4688 7.14585 22.8201 5.93958 21.508C4.71841 20.1958 4.12272 18.4709 4.12272 16.3183C4.12272 14.2248 4.71841 12.4998 5.8949 11.1434C7.07139 9.78704 8.62022 9.10885 10.5413 9.10885C11.5242 9.10885 12.3581 9.2268 13.0283 9.44794C13.6984 9.6691 14.309 9.96396 14.8898 10.3473L15.3813 12.8831L17.079 12.721L16.5876 9.38897C15.8727 8.7845 15.0238 8.29797 14.041 7.91464C13.0581 7.54606 11.8369 7.35439 10.3924 7.35439C8.67978 7.35439 7.20545 7.76721 5.96939 8.60758C4.73333 9.44795 3.76533 10.5537 3.08029 11.9248C2.39525 13.3107 2.05272 14.7998 2.05272 16.392C2.05272 18.9132 2.84201 21.0215 4.42058 22.7022C5.99916 24.3829 8.05428 25.2233 10.6009 25.2233C13.1028 25.2233 15.0537 24.6925 16.4535 23.631Z" fill="#FF6D6D"/>
<path d="M24.7188 30.6488V0.484009H32.4329V30.6341H24.7188V30.6488ZM25.5378 24.9579H31.6287V23.4394H29.529V6.60249H25.508V8.12105H27.6376V23.4394H25.5378V24.9579Z" fill="#FF6D6D"/>
<path d="M38.5239 30.6488V0.484009H52.0759V30.6341H38.5239V30.6488ZM40.9811 13.9889L40.5493 16.7311L42.113 16.9228L42.5746 14.8735C43.2448 14.5491 44.0043 14.387 44.8978 14.387C45.97 14.387 46.6998 14.6523 47.0721 15.1831C47.4444 15.7139 47.6231 16.4068 47.6231 17.2619V18.3234C47.2955 18.2939 46.9529 18.2645 46.5806 18.2497C46.2083 18.235 45.8509 18.2202 45.4935 18.2202C44.1532 18.2202 42.8725 18.4561 41.6811 18.9279C40.4897 19.3997 39.894 20.3875 39.894 21.8766C39.894 23.1445 40.2961 24.0143 41.1152 24.4861C41.9343 24.9727 42.7385 25.2086 43.5277 25.2086C44.4957 25.2086 45.3297 24.9579 46.0147 24.4566C46.6998 23.9554 47.2359 23.3951 47.6231 22.7464V22.8054C47.6529 24.4124 48.3826 25.2086 49.8123 25.2086C50.3633 25.2086 50.8845 25.0759 51.3759 24.8105L51.3462 23.5868C51.1079 23.69 50.8398 23.749 50.542 23.749C49.8569 23.749 49.5144 23.3214 49.5144 22.4663V16.8196C49.5144 14.1658 48.0847 12.8389 45.2254 12.8389C44.4361 12.8389 43.6915 12.9274 42.9916 13.1043C42.2768 13.296 41.6066 13.5908 40.9811 13.9889ZM47.6082 20.5054C47.5337 21.4785 47.1317 22.2599 46.4019 22.8201C45.6722 23.3951 44.8978 23.6752 44.0638 23.6752C43.5426 23.6752 43.0363 23.5278 42.5598 23.2477C42.0683 22.9676 41.83 22.4368 41.83 21.6702C41.83 20.7413 42.2023 20.1516 42.9172 19.8715C43.6469 19.5913 44.451 19.4587 45.3595 19.4587C45.7615 19.4587 46.1487 19.4734 46.5211 19.5176C46.8934 19.5471 47.2657 19.5766 47.5933 19.5913V20.5054H47.6082Z" fill="#FF6D6D"/>
<path d="M58.1816 30.6488V0.484009H70.4975V30.6341H58.1816V30.6488ZM69.2019 21.5227C69.2019 20.5792 68.9487 19.8862 68.4424 19.4292C67.936 18.9721 67.3255 18.6625 66.5808 18.4856C65.8362 18.3087 65.1065 18.1612 64.3768 18.0433C63.6471 17.9254 63.0216 17.7337 62.5153 17.4831C62.009 17.2324 61.7558 16.7901 61.7558 16.1562C61.7558 15.5517 61.994 15.1094 62.4855 14.8145C62.9769 14.5196 63.5875 14.387 64.347 14.387C65.2256 14.387 66.0448 14.5786 66.8043 14.9767L67.1021 16.8933L68.6658 16.7017L68.3679 13.9299C67.8616 13.6203 67.251 13.3697 66.5213 13.1633C65.7916 12.9569 65.0172 12.8389 64.1832 12.8389C63.0812 12.8389 62.0685 13.1043 61.1303 13.6203C60.1921 14.1363 59.7304 15.0209 59.7304 16.2888C59.7304 17.2177 59.9836 17.8959 60.4899 18.3234C60.9963 18.7657 61.6218 19.0606 62.3813 19.2375C63.1408 19.4144 63.8853 19.5619 64.63 19.6946C65.3746 19.8125 66.0001 20.0189 66.5064 20.2843C67.0127 20.5497 67.2659 21.0067 67.2659 21.6702C67.2659 22.3483 66.9382 22.8496 66.283 23.174C65.6277 23.4983 64.8831 23.6605 64.0343 23.6605C63.0812 23.6605 62.1876 23.4688 61.3686 23.0708L61.443 21.4932L59.9389 21.3311L59.5666 24.0291C60.0878 24.3682 60.7729 24.6483 61.6068 24.8695C62.4408 25.0906 63.2748 25.2086 64.1236 25.2086C65.5682 25.2086 66.7745 24.8842 67.7425 24.2207C68.7105 23.5868 69.2019 22.6727 69.2019 21.5227Z" fill="#FF6D6D"/>
<path d="M76.5884 30.6488V0.484009H88.9042V30.6341H76.5884V30.6488ZM87.6086 21.5227C87.6086 20.5792 87.3554 19.8862 86.8491 19.4292C86.3427 18.9721 85.7321 18.6625 84.9875 18.4856C84.2429 18.3087 83.5132 18.1612 82.7835 18.0433C82.0538 17.9254 81.4283 17.7337 80.922 17.4831C80.4156 17.2324 80.1625 16.7901 80.1625 16.1562C80.1625 15.5517 80.4007 15.1094 80.8922 14.8145C81.3836 14.5196 81.9942 14.387 82.7537 14.387C83.6323 14.387 84.4514 14.5786 85.211 14.9767L85.5088 16.8933L87.0725 16.7017L86.7746 13.9299C86.2683 13.6203 85.6577 13.3697 84.928 13.1633C84.1983 12.9569 83.4239 12.8389 82.5899 12.8389C81.4879 12.8389 80.4752 13.1043 79.537 13.6203C78.5988 14.1363 78.1371 15.0209 78.1371 16.2888C78.1371 17.2177 78.3903 17.8959 78.8967 18.3234C79.403 18.7657 80.0285 19.0606 80.788 19.2375C81.5475 19.4144 82.292 19.5619 83.0367 19.6946C83.7813 19.8125 84.4068 20.0189 84.9131 20.2843C85.4194 20.5497 85.6726 21.0067 85.6726 21.6702C85.6726 22.3483 85.345 22.8496 84.6898 23.174C84.0345 23.4983 83.2899 23.6605 82.441 23.6605C81.4879 23.6605 80.5943 23.4688 79.7752 23.0708L79.8498 21.4932L78.3457 21.3311L77.9733 24.0291C78.4946 24.3682 79.1796 24.6483 80.0136 24.8695C80.8475 25.0906 81.6815 25.2086 82.5304 25.2086C83.9749 25.2086 85.1812 24.8842 86.1492 24.2207C87.1172 23.5868 87.6086 22.6727 87.6086 21.5227Z" fill="#FF6D6D"/>
<path d="M94.9951 30.6488V0.484009H103.111V30.6341H94.9951V30.6488ZM96.1865 24.9579H102.277V23.4394H100.178V13.0895H96.1418V14.6081H98.3012V23.4394H96.2014V24.9579H96.1865ZM98.0927 7.59029V10.0229H100.148V7.59029H98.0927Z" fill="#FF6D6D"/>
<path d="M109.203 30.6488V0.484009H122.174V30.6341H109.203V30.6488ZM121.012 20.9625L119.389 20.6086C119.032 22.6137 117.944 23.6163 116.157 23.6163C114.966 23.6163 114.058 23.2182 113.432 22.4221C112.807 21.6259 112.494 20.5054 112.494 19.0901C112.494 17.8074 112.777 16.7164 113.328 15.8023C113.879 14.8882 114.802 14.4459 116.083 14.4459C117.066 14.4459 117.93 14.6671 118.644 15.1094L119.106 17.1145L120.67 16.9228L120.208 14.0626C119.597 13.6056 118.957 13.2812 118.287 13.1043C117.617 12.9274 116.887 12.8389 116.098 12.8389C114.236 12.8389 112.821 13.4876 111.898 14.785C110.96 16.0824 110.498 17.5568 110.498 19.1933C110.498 21.0952 110.99 22.5842 111.987 23.631C112.97 24.6925 114.296 25.2233 115.949 25.2233C117.602 25.2233 118.823 24.7663 119.597 23.8669C120.372 22.9528 120.848 21.9945 121.012 20.9625Z" fill="#FF6D6D"/>
<path d="M8.44178 47.1177C8.09926 47.7369 7.59291 48.2234 6.93765 48.5625C6.2675 48.9016 5.4782 49.0785 4.55488 49.0785H1.88916V40.7633H4.55488C5.4782 40.7633 6.28239 40.9255 6.93765 41.2646C7.59291 41.6037 8.09926 42.0755 8.44178 42.7094C8.7843 43.3434 8.94811 44.0658 8.94811 44.9209C8.94811 45.7613 8.7843 46.4985 8.44178 47.1177ZM6.96742 47.2798C7.54822 46.7196 7.8312 45.9382 7.8312 44.9209C7.8312 43.9036 7.54822 43.1222 6.96742 42.562C6.38662 42.0017 5.55265 41.7216 4.45063 41.7216H2.94654V48.1202H4.45063C5.55265 48.1202 6.38662 47.8401 6.96742 47.2798Z" fill="#FF6D6D"/>
<path d="M14.4734 41.6332V44.4786H17.6603V45.3042H14.4734V48.2087H18.0177V49.0785H13.3862V40.7633H18.0177V41.6332H14.4734Z" fill="#FF6D6D"/>
<path d="M27.4296 48.0166C27.236 48.3557 26.953 48.6358 26.5658 48.8422C26.1786 49.0486 25.702 49.1666 25.1212 49.1666C24.5702 49.1666 24.0639 49.0634 23.632 48.8717C23.2001 48.6653 22.8576 48.3999 22.5896 48.0461C22.3364 47.6923 22.1875 47.2942 22.1428 46.8519H23.3044C23.3342 47.0878 23.4086 47.3237 23.5427 47.5448C23.6767 47.766 23.8852 47.9576 24.1383 48.1051C24.3915 48.2525 24.7043 48.3262 25.0766 48.3262C25.5531 48.3262 25.9255 48.2083 26.1786 47.9429C26.4318 47.6775 26.5658 47.3679 26.5658 46.9698C26.5658 46.6307 26.4764 46.3506 26.2977 46.1442C26.119 45.9378 25.8956 45.7609 25.6425 45.6429C25.3893 45.525 25.017 45.3923 24.5702 45.2449C24.0341 45.068 23.6172 44.9058 23.2895 44.7583C22.9619 44.6109 22.6938 44.375 22.4704 44.0654C22.247 43.7558 22.1279 43.3577 22.1279 42.8564C22.1279 42.4289 22.2322 42.0456 22.4407 41.7065C22.6491 41.3821 22.947 41.1167 23.3491 40.9398C23.7363 40.7629 24.2128 40.6744 24.7341 40.6744C25.5531 40.6744 26.2233 40.8661 26.6998 41.2642C27.1913 41.6622 27.4593 42.1635 27.5487 42.7827H26.3871C26.3275 42.4584 26.1488 42.1635 25.8808 41.9129C25.5978 41.6622 25.2255 41.5296 24.7489 41.5296C24.3171 41.5296 23.9597 41.6475 23.7065 41.8686C23.4384 42.0898 23.3193 42.4142 23.3193 42.8122C23.3193 43.1366 23.4087 43.402 23.5725 43.5936C23.7512 43.8 23.9597 43.9475 24.2128 44.0654C24.466 44.1833 24.8234 44.3013 25.2553 44.4487C25.7914 44.6256 26.2233 44.7878 26.5658 44.95C26.8934 45.1122 27.1764 45.3481 27.3997 45.6577C27.6231 45.9673 27.7423 46.3948 27.7423 46.9256C27.7125 47.3089 27.6232 47.6775 27.4296 48.0166Z" fill="#FF6D6D"/>
<path d="M33.2375 40.7633V49.0785H32.1504V40.7633H33.2375Z" fill="#FF6D6D"/>
<path d="M44.2277 41.3969C44.8978 41.8834 45.3446 42.5321 45.568 43.3578H44.4213C44.2277 42.8565 43.8851 42.4437 43.4235 42.1488C42.9618 41.8392 42.4108 41.6918 41.7705 41.6918C41.2046 41.6918 40.6833 41.8245 40.2365 42.0898C39.7897 42.3552 39.4324 42.7238 39.1643 43.2103C38.9111 43.6969 38.7771 44.2718 38.7771 44.9353C38.7771 45.6135 38.9111 46.2032 39.1643 46.6898C39.4175 47.1763 39.7898 47.5596 40.2514 47.825C40.7131 48.0904 41.2492 48.2231 41.8598 48.2231C42.381 48.2231 42.8427 48.1051 43.2745 47.8987C43.7064 47.6776 44.0489 47.3532 44.3319 46.9404C44.6148 46.5276 44.7638 46.0263 44.8233 45.4661H41.5173V44.6699H45.7318V45.6577C45.6573 46.3212 45.4488 46.9109 45.1063 47.4564C44.7638 48.0019 44.3021 48.4147 43.7213 48.7243C43.1405 49.0339 42.4853 49.1961 41.7406 49.1961C40.9365 49.1961 40.2216 49.0192 39.5962 48.6654C38.9707 48.3115 38.4941 47.8102 38.1516 47.1615C37.8091 46.5276 37.6304 45.7904 37.6304 44.9648C37.6304 44.1392 37.8091 43.402 38.1516 42.768C38.4941 42.1341 38.9856 41.6181 39.5962 41.2642C40.2067 40.9104 40.9216 40.7187 41.7257 40.7187C42.7384 40.6892 43.5575 40.9251 44.2277 41.3969Z" fill="#FF6D6D"/>
<path d="M56.7222 49.0785H55.6351L51.2717 42.503V49.0785H50.1846V40.7633H51.2717L55.6351 47.3388V40.7633H56.7222V49.0785Z" fill="#FF6D6D"/>
<path d="M72.389 48.0166C72.1954 48.3557 71.9125 48.6358 71.5253 48.8422C71.1381 49.0486 70.6616 49.1666 70.0808 49.1666C69.5297 49.1666 69.0234 49.0634 68.5915 48.8717C68.1597 48.6653 67.8171 48.3999 67.5491 48.0461C67.2959 47.6923 67.147 47.2942 67.1023 46.8519H68.2639C68.2936 47.0878 68.3682 47.3237 68.5022 47.5448C68.6362 47.766 68.8447 47.9576 69.0978 48.1051C69.351 48.2525 69.6637 48.3262 70.036 48.3262C70.5126 48.3262 70.8849 48.2083 71.138 47.9429C71.3912 47.6775 71.5253 47.3679 71.5253 46.9698C71.5253 46.6307 71.4359 46.3506 71.2572 46.1442C71.0785 45.9378 70.8551 45.7609 70.6019 45.6429C70.3488 45.525 69.9765 45.3923 69.5298 45.2449C68.9936 45.068 68.5766 44.9058 68.2489 44.7583C67.9213 44.6109 67.6533 44.375 67.4299 44.0654C67.2065 43.7558 67.0874 43.3577 67.0874 42.8564C67.0874 42.4289 67.1916 42.0456 67.4001 41.7065C67.6086 41.3821 67.9065 41.1167 68.3086 40.9398C68.6958 40.7629 69.1723 40.6744 69.6935 40.6744C70.5126 40.6744 71.1828 40.8661 71.6593 41.2642C72.1508 41.6622 72.4188 42.1635 72.5082 42.7827H71.3466C71.287 42.4584 71.1082 42.1635 70.8402 41.9129C70.5572 41.6622 70.185 41.5296 69.7085 41.5296C69.2766 41.5296 68.9191 41.6475 68.666 41.8686C68.3979 42.0898 68.2788 42.4142 68.2788 42.8122C68.2788 43.1366 68.3681 43.402 68.5319 43.5936C68.7106 43.8 68.9191 43.9475 69.1723 44.0654C69.4254 44.1833 69.7829 44.3013 70.2147 44.4487C70.7509 44.6256 71.1827 44.7878 71.5253 44.95C71.8529 45.1122 72.1358 45.3481 72.3592 45.6577C72.5826 45.9673 72.7017 46.3948 72.7017 46.9256C72.6719 47.3089 72.5826 47.6775 72.389 48.0166Z" fill="#FF6D6D"/>
<path d="M82.2626 40.7633V41.6332H79.8947V49.0785H78.7927V41.6332H76.4248V40.7633H82.2626Z" fill="#FF6D6D"/>
<path d="M87.3263 40.7633V45.7465C87.3263 46.5574 87.505 47.1619 87.8773 47.56C88.2496 47.9433 88.7411 48.1497 89.3964 48.1497C90.0367 48.1497 90.5282 47.958 90.8856 47.56C91.243 47.1619 91.4217 46.5722 91.4217 45.7613V40.778H92.5089V45.7613C92.5089 46.8965 92.2259 47.7516 91.66 48.3119C91.0941 48.8869 90.3346 49.167 89.3815 49.167C88.4433 49.167 87.6838 48.8869 87.1179 48.3119C86.552 47.7369 86.269 46.8965 86.269 45.7613V40.778H87.3263V40.7633Z" fill="#FF6D6D"/>
<path d="M103.722 47.1177C103.379 47.7369 102.873 48.2234 102.218 48.5625C101.548 48.9016 100.758 49.0785 99.8351 49.0785H97.1694V40.7633H99.8351C100.758 40.7633 101.563 40.9255 102.218 41.2646C102.873 41.6037 103.379 42.0755 103.722 42.7094C104.064 43.3434 104.228 44.0658 104.228 44.9209C104.228 45.7613 104.064 46.4985 103.722 47.1177ZM102.263 47.2798C102.843 46.7196 103.126 45.9382 103.126 44.9209C103.126 43.9036 102.843 43.1222 102.263 42.562C101.682 42.0017 100.848 41.7216 99.7458 41.7216H98.2416V48.1202H99.7458C100.833 48.1202 101.682 47.8401 102.263 47.2798Z" fill="#FF6D6D"/>
<path d="M109.768 40.7633V49.0785H108.681V40.7633H109.768Z" fill="#FF6D6D"/>
<path d="M120.431 41.2053C121.057 41.5739 121.548 42.0751 121.906 42.7239C122.263 43.3726 122.442 44.1097 122.442 44.9206C122.442 45.7315 122.263 46.4687 121.906 47.1174C121.548 47.7661 121.057 48.2673 120.431 48.6359C119.806 49.0045 119.106 49.1814 118.331 49.1814C117.557 49.1814 116.842 49.0045 116.217 48.6359C115.591 48.2673 115.085 47.7661 114.728 47.1174C114.37 46.4687 114.191 45.7315 114.191 44.9206C114.191 44.1097 114.37 43.3726 114.728 42.7239C115.085 42.0751 115.576 41.5739 116.217 41.2053C116.857 40.8367 117.557 40.6598 118.331 40.6598C119.106 40.6598 119.806 40.8367 120.431 41.2053ZM116.768 42.0604C116.306 42.3258 115.949 42.6944 115.696 43.1956C115.442 43.6822 115.308 44.2572 115.308 44.9206C115.308 45.5693 115.442 46.1443 115.696 46.6456C115.949 47.1468 116.306 47.5154 116.768 47.7808C117.229 48.0462 117.736 48.1789 118.316 48.1789C118.882 48.1789 119.404 48.0462 119.865 47.7808C120.327 47.5154 120.684 47.1321 120.938 46.6456C121.191 46.159 121.325 45.5841 121.325 44.9353C121.325 44.2719 121.191 43.6969 120.938 43.2104C120.684 42.7239 120.327 42.3405 119.865 42.0751C119.404 41.8098 118.897 41.6771 118.316 41.6771C117.751 41.6623 117.229 41.795 116.768 42.0604Z" fill="#FF6D6D"/>
</svg>
