<svg width="108" height="106" viewBox="0 0 108 106" fill="none" xmlns="http://www.w3.org/2000/svg">
<g style="mix-blend-mode:multiply">
<path d="M53.8963 104.943C82.9626 104.943 106.525 81.6158 106.525 52.8402C106.525 24.0646 82.9626 0.737305 53.8963 0.737305C24.83 0.737305 1.26709 24.0646 1.26709 52.8402C1.26709 81.6158 24.83 104.943 53.8963 104.943Z" fill="white"/>
<path d="M53.8962 105.68C24.4692 105.68 0.522461 81.9728 0.522461 52.84C0.522461 23.7073 24.4692 0 53.8962 0C83.3233 0 107.27 23.7073 107.27 52.84C107.27 81.9728 83.3233 105.68 53.8962 105.68ZM53.8962 1.47433C25.2883 1.47433 2.01168 24.5181 2.01168 52.84C2.01168 81.162 25.2883 104.206 53.8962 104.206C82.5042 104.206 105.781 81.162 105.781 52.84C105.781 24.5181 82.5042 1.47433 53.8962 1.47433Z" fill="#FF6D6D"/>
<path d="M61.4022 6.02976C61.7596 6.05924 62.0723 6.07398 62.3255 6.07398L62.2957 6.30988C61.8787 6.36885 61.5213 6.67846 61.2384 7.26819L57.694 14.286L57.5898 14.2713L57.5004 14.2565L55.2517 6.42782C55.1028 5.91181 54.8496 5.63169 54.4922 5.58746L54.522 5.35156C54.8496 5.41054 55.2815 5.45477 55.8176 5.51374C56.5175 5.57271 57.0388 5.61694 57.3813 5.61694L57.3515 5.85284C57.0388 5.83809 56.8154 5.85284 56.6813 5.89707C56.5473 5.9413 56.4729 6.05924 56.458 6.20667C56.4431 6.33936 56.4729 6.53103 56.5473 6.78166L58.2004 12.7675L60.6576 7.87267C60.8661 7.4746 60.9703 7.15025 61.0001 6.91435C61.0299 6.66372 60.9554 6.47205 60.7916 6.33936C60.6278 6.20667 60.3597 6.13296 60.0023 6.08873L60.0321 5.85284C60.464 5.92655 60.9256 5.98553 61.4022 6.02976Z" fill="#FF6D6D"/>
<path d="M71.4098 9.14059C71.2609 9.14059 71.1417 9.19956 71.0524 9.31751C70.963 9.43545 70.8588 9.62712 70.7545 9.90724L68.6249 15.5097C68.5207 15.7898 68.4611 16.011 68.4611 16.1584C68.4611 16.3058 68.5058 16.4238 68.6101 16.5122C68.7143 16.6007 68.9079 16.7039 69.176 16.8219L69.0866 17.043C68.7441 16.8956 68.2675 16.7039 67.657 16.468C67.0017 16.2174 66.5102 16.0552 66.1826 15.952L66.272 15.7308C66.5549 15.8193 66.7634 15.8635 66.8974 15.8635C67.0315 15.8635 67.1655 15.8046 67.2549 15.6866C67.3442 15.5687 67.4485 15.377 67.5527 15.0969L69.6823 9.49443C69.7865 9.2143 69.8461 8.99315 69.8461 8.84572C69.8461 8.69829 69.8014 8.58034 69.6972 8.49188C69.5929 8.40342 69.3993 8.30022 69.1313 8.18227L69.2206 7.96112C69.5334 8.09381 70.0099 8.28547 70.6652 8.53611C71.2758 8.772 71.7672 8.93418 72.1246 9.03738L72.0353 9.25853C71.7672 9.17007 71.5587 9.12584 71.4098 9.14059Z" fill="#FF6D6D"/>
<path d="M84.6638 16.9398C84.5149 16.9103 84.366 16.9545 84.2319 17.043C84.0979 17.1314 83.9341 17.3084 83.7554 17.559L79.4366 23.3531L79.2133 23.1909L79.7941 13.8732L75.9668 19.0038C75.788 19.2545 75.6689 19.4609 75.6093 19.6231C75.5498 19.7852 75.5796 19.9327 75.654 20.0801C75.7285 20.2275 75.9072 20.3897 76.1604 20.5961L76.0114 20.7878C75.788 20.5961 75.4604 20.3455 75.0285 20.0211C74.6413 19.741 74.3286 19.5199 74.0903 19.3872L74.2393 19.1955C74.4775 19.3577 74.6711 19.4461 74.82 19.4609C74.969 19.4904 75.1179 19.4461 75.2519 19.3577C75.386 19.2545 75.5498 19.0923 75.7285 18.8417L79.243 14.1238C79.4218 13.8732 79.5409 13.6815 79.5856 13.5488C79.6302 13.4161 79.6154 13.2834 79.5409 13.1655C79.4664 13.0475 79.3175 12.9001 79.0792 12.7084L79.2281 12.5168C79.4217 12.6937 79.7196 12.9296 80.1217 13.2097C80.4195 13.4309 80.6727 13.6078 80.911 13.7405L80.4344 21.5544L83.532 17.3968C83.7107 17.1462 83.8447 16.9398 83.8894 16.7776C83.9341 16.6154 83.9192 16.468 83.8447 16.3206C83.7703 16.1731 83.5916 15.9962 83.3384 15.8045L83.4873 15.6129C83.7107 15.8045 84.0383 16.0552 84.4702 16.3795C84.8574 16.6597 85.1702 16.8808 85.4084 17.0135L85.2595 17.2052C85.0063 17.0577 84.8127 16.9545 84.6638 16.9398Z" fill="#FF6D6D"/>
<path d="M89.6527 23.5893C90.0399 23.3091 90.442 22.9995 90.8739 22.6162C91.2462 23.1765 91.9015 24.1053 92.8397 25.4174C93.7779 26.7149 94.448 27.6289 94.8501 28.1597C94.3438 28.4546 93.9119 28.7199 93.5247 28.9853C93.1971 29.2212 92.929 29.4276 92.7354 29.5898L92.5716 29.3686C93.0482 28.9558 93.3758 28.6167 93.5694 28.3661C93.763 28.1155 93.8374 27.8501 93.8226 27.57C93.8077 27.2898 93.629 26.9507 93.346 26.5379L92.9588 26.0072L87.3146 29.9879C87.0466 30.1795 86.853 30.3565 86.7636 30.4891C86.6743 30.6218 86.6445 30.784 86.7041 30.9609C86.7487 31.1231 86.8828 31.359 87.0764 31.6539L86.8828 31.8013C86.6594 31.4475 86.3169 30.9462 85.8701 30.3417C85.3935 29.6783 85.0361 29.2065 84.7979 28.9116L84.9915 28.7642C85.2148 29.0443 85.3935 29.236 85.5425 29.3392C85.6914 29.4424 85.8403 29.4719 86.0041 29.4276C86.1679 29.3834 86.3913 29.2654 86.6594 29.0738L92.3035 25.0931L91.9163 24.5623C91.6185 24.1495 91.3504 23.8989 91.0973 23.7809C90.8441 23.663 90.5611 23.6482 90.2633 23.7514C89.9655 23.8547 89.5336 24.0463 88.9826 24.3559L88.8188 24.1348C89.0421 24.0168 89.3102 23.8399 89.6527 23.5893Z" fill="#FF6D6D"/>
<path d="M92.5117 44.0532L92.2734 44.1269C92.184 43.8026 92.0649 43.3898 91.8862 42.8885C91.6628 42.2398 91.4841 41.7532 91.3501 41.4289L91.5883 41.3552C91.6926 41.6353 91.8117 41.8417 91.9011 41.9449C92.0053 42.0481 92.1393 42.0776 92.2883 42.0186C92.4223 41.9744 92.5861 41.8712 92.7797 41.709L94.4328 40.3674L93.4945 37.6104L92.1096 37.5514C91.6628 37.5219 91.3203 37.5514 91.082 37.6399C90.8437 37.7283 90.6948 37.861 90.6352 38.0527C90.5906 38.2443 90.6203 38.5245 90.7246 38.8636L90.4863 38.9373C90.3672 38.495 90.2183 38.0527 90.0693 37.6104C89.9502 37.2713 89.8459 36.9912 89.7417 36.77L89.98 36.6963C90.1885 37.0501 90.6352 37.2418 91.2905 37.2565L99.2132 37.6104L99.2727 37.7873L92.9584 42.9917C92.5712 43.3603 92.4223 43.6994 92.5117 44.0532ZM97.6793 37.7873L93.7775 37.6251L94.6561 40.2199L97.6793 37.7873Z" fill="#FF6D6D"/>
<path d="M93.5991 55.3311C93.748 55.2721 93.8224 55.1984 93.8224 55.0952C93.8224 55.0363 93.8075 54.992 93.7778 54.9478C93.748 54.9036 93.6884 54.8151 93.5991 54.6972C93.3757 54.417 93.2119 54.1222 93.0927 53.8273C92.9736 53.5324 92.914 53.1933 92.914 52.8248C92.8991 51.9991 93.0629 51.2915 93.3906 50.687C93.7331 50.0825 94.2096 49.6255 94.8649 49.3011C95.5053 48.9768 96.2797 48.8146 97.1881 48.7998C98.1263 48.7851 98.9454 48.9325 99.6453 49.2569C100.345 49.5812 100.896 50.0235 101.283 50.6133C101.671 51.203 101.879 51.8664 101.879 52.6036C101.879 52.928 101.849 53.2228 101.79 53.4735C101.73 53.7241 101.641 53.9453 101.537 54.1369C101.432 54.3286 101.298 54.5497 101.12 54.7856C101.045 54.8888 101.001 54.9773 101.001 55.0363C101.001 55.1837 101.254 55.2869 101.745 55.3311V55.6112C101.224 55.5818 100.286 55.5818 98.9454 55.6112V55.3311C99.3772 55.2574 99.7347 55.1689 100.018 55.0805C100.301 54.992 100.539 54.8593 100.747 54.6972C101.03 54.4613 101.269 54.1517 101.432 53.7683C101.596 53.385 101.671 53.0017 101.671 52.5889C101.656 52.0581 101.477 51.6011 101.12 51.203C100.762 50.8049 100.256 50.5101 99.6155 50.2889C98.9603 50.0825 98.2156 49.9793 97.3519 49.994C96.369 50.0088 95.5797 50.1267 94.9543 50.3479C94.3288 50.569 93.882 50.8934 93.5842 51.3209C93.2863 51.7485 93.1523 52.294 93.1672 52.9574C93.1821 53.444 93.3161 53.8568 93.5693 54.2106C93.6735 54.3581 93.7629 54.4465 93.8671 54.4908C93.9565 54.535 94.0905 54.5497 94.2543 54.5497L95.4308 54.535C95.7733 54.535 96.0116 54.4908 96.1754 54.4318C96.3243 54.3728 96.4435 54.2549 96.4882 54.0779C96.5477 53.9158 96.5775 53.6504 96.5775 53.2965H96.8158C96.8009 53.6946 96.786 54.2549 96.8009 55.0068C96.8158 55.567 96.8307 55.9946 96.8605 56.26H96.6222C96.6073 56.0683 96.5626 55.9356 96.5179 55.8619C96.4733 55.7882 96.369 55.7292 96.235 55.6997C96.101 55.6702 95.8776 55.6555 95.5648 55.6702L93.1523 55.7145V55.4786C93.2863 55.4196 93.4501 55.3901 93.5991 55.3311Z" fill="#FF6D6D"/>
<path d="M91.8271 67.878C91.3952 67.7453 90.8889 67.6126 90.3081 67.4947C90.5017 66.9786 90.7847 66.1088 91.1867 64.8704C91.6633 63.396 92.0058 62.2755 92.2143 61.5236L92.4526 61.5973C92.3781 61.8775 92.3483 62.0839 92.3483 62.2313C92.3632 62.3787 92.4228 62.4819 92.5419 62.5704C92.6611 62.6589 92.8696 62.7473 93.1525 62.8358L98.9158 64.6345C99.2137 64.7229 99.4222 64.7672 99.5711 64.7672C99.72 64.7672 99.8391 64.7082 99.9285 64.5902C100.018 64.4723 100.107 64.2806 100.211 64.0152L100.45 64.089C100.182 64.8409 99.8242 65.9466 99.3477 67.4209C98.9903 68.5414 98.7371 69.3523 98.618 69.8389C98.1265 69.6324 97.6798 69.4555 97.2628 69.3376C96.9649 69.2491 96.7118 69.1754 96.5331 69.1459L96.6224 68.8805C97.1436 68.9837 97.5457 69.028 97.8138 69.028C98.0819 69.028 98.3052 68.9395 98.4839 68.7626C98.6626 68.6004 98.8116 68.3055 98.9456 67.9075L99.2434 66.9492C99.3328 66.669 99.3775 66.4626 99.3626 66.3299C99.3477 66.1973 99.303 66.0793 99.1839 65.9908C99.0647 65.9024 98.8711 65.8139 98.5733 65.7255L95.8331 64.8704L95.5948 65.637C95.4757 66.0203 95.5055 66.3152 95.6991 66.5216C95.8927 66.728 96.1012 66.8754 96.3395 66.9786C96.5777 67.0819 96.7267 67.1556 96.7862 67.1851L96.6969 67.4504C96.3246 67.303 95.9672 67.1703 95.6097 67.0671L95.0587 66.9049C94.6715 66.787 94.1056 66.6248 93.3908 66.4626L93.4801 66.1973C93.5397 66.212 93.7333 66.2415 94.061 66.3152C94.3886 66.3742 94.6715 66.3447 94.8949 66.2267C95.1183 66.1088 95.2672 65.8876 95.3715 65.578L95.6097 64.8114L92.81 63.9415C92.5122 63.8531 92.3037 63.8088 92.1547 63.8088C92.0058 63.8088 91.8867 63.8678 91.8122 63.9858C91.7229 64.1037 91.6335 64.2954 91.5442 64.5755L91.2761 65.4159C91.1272 65.9024 91.0676 66.2857 91.1272 66.5658C91.1719 66.8607 91.3208 67.0966 91.5739 67.303C91.8271 67.4947 92.2143 67.7158 92.7355 67.9517L92.6462 68.2171C92.4675 68.0844 92.1845 67.9959 91.8271 67.878Z" fill="#FF6D6D"/>
<path d="M87.5826 85.9677C87.6422 85.8351 87.6273 85.7024 87.5677 85.5697C87.5082 85.437 87.3592 85.2748 87.1358 85.0537L82.7575 80.9108C82.5341 80.7044 82.3554 80.5717 82.2214 80.5127C82.0874 80.4537 81.9533 80.4537 81.8193 80.5127C81.6853 80.5717 81.5215 80.7044 81.313 80.9108L81.1343 80.7486C81.4172 80.498 81.7746 80.1294 82.2363 79.6723C82.7129 79.1711 83.0703 78.7877 83.2937 78.5371L83.4724 78.6993C83.2788 78.9204 83.1596 79.0974 83.1001 79.2153C83.0405 79.348 83.0554 79.4807 83.1149 79.6134C83.1745 79.7461 83.3234 79.9082 83.5468 80.1294L87.9251 84.2723C88.1485 84.4787 88.3272 84.6114 88.4613 84.6703C88.5953 84.7293 88.7293 84.7293 88.8633 84.6703C88.9974 84.6114 89.1612 84.4787 89.3697 84.2723L89.5484 84.4344C89.2952 84.6556 88.9229 85.0242 88.4464 85.5254C87.9847 85.9972 87.6422 86.3806 87.4039 86.6607L87.2252 86.4985C87.4039 86.2773 87.523 86.1004 87.5826 85.9677Z" fill="#FF6D6D"/>
<path d="M75.1774 94.9617C75.2668 94.829 75.2816 94.6963 75.2519 94.5341C75.2221 94.372 75.1178 94.1655 74.954 93.8854L71.2607 87.6785L71.499 87.531L79.928 91.7034L76.6666 86.2189C76.5028 85.9535 76.3688 85.7618 76.2348 85.6586C76.1007 85.5554 75.9518 85.5112 75.788 85.526C75.6242 85.5407 75.4008 85.6292 75.1178 85.7766L74.9838 85.5702C75.2519 85.4522 75.6093 85.2458 76.0709 84.9805C76.4879 84.7298 76.8007 84.5382 77.024 84.376L77.1432 84.5824C76.9049 84.7298 76.7411 84.8772 76.6666 85.0099C76.5773 85.1426 76.5624 85.2753 76.5922 85.4375C76.622 85.5997 76.7262 85.8061 76.89 86.0862L79.8982 91.1432C80.0472 91.4085 80.1812 91.5855 80.3003 91.6739C80.4195 91.7624 80.5386 91.8066 80.6875 91.7771C80.8216 91.7476 81.0301 91.6739 81.2832 91.5412L81.4024 91.7476C81.1641 91.8656 80.8365 92.0425 80.4046 92.2931C80.0918 92.4701 79.8238 92.647 79.6004 92.7944L72.5266 89.3002L75.1774 93.7527C75.3412 94.0181 75.4752 94.2098 75.6093 94.313C75.7284 94.4162 75.8773 94.4604 76.056 94.4457C76.2348 94.4309 76.4581 94.3425 76.7411 94.195L76.8602 94.4014C76.5922 94.5194 76.2347 94.7258 75.7731 94.9912C75.3561 95.2418 75.0434 95.4335 74.82 95.5956L74.7009 95.3892C74.9242 95.2271 75.088 95.0796 75.1774 94.9617Z" fill="#FF6D6D"/>
<path d="M66.9867 96.8924C67.0909 97.3495 67.2249 97.8507 67.4036 98.3815C66.7335 98.4995 65.6166 98.7353 64.038 99.0597C62.4594 99.3988 61.3574 99.6494 60.7021 99.8116C60.6277 99.2366 60.5532 98.7353 60.449 98.2783C60.3596 97.8802 60.2852 97.5559 60.1958 97.32L60.4639 97.261C60.6575 97.8655 60.8362 98.293 61 98.5732C61.1638 98.8533 61.3723 99.0302 61.6403 99.1187C61.9084 99.2071 62.2956 99.1924 62.7871 99.0892L63.4274 98.9565L61.968 92.2483C61.8935 91.9239 61.8191 91.688 61.7148 91.5553C61.6106 91.4227 61.4914 91.3342 61.3127 91.3194C61.134 91.29 60.866 91.3195 60.5085 91.3784L60.4639 91.1425C60.8808 91.0836 61.4765 90.9656 62.2211 90.8034C63.0104 90.6265 63.6061 90.4938 63.9784 90.3906L64.0231 90.6265C63.6657 90.715 63.4274 90.8034 63.2785 90.8919C63.1296 90.9804 63.0402 91.113 63.0104 91.2752C62.9806 91.4374 62.9955 91.688 63.07 92.0124L64.5294 98.7206L65.1698 98.5879C65.6613 98.4847 66.0187 98.3373 66.2272 98.1456C66.4356 97.9539 66.5548 97.7033 66.5846 97.3937C66.6144 97.0841 66.5995 96.6123 66.525 95.9931L66.7931 95.9341C66.8377 96.17 66.8973 96.4944 66.9867 96.8924Z" fill="#FF6D6D"/>
<path d="M47.2244 92.7502C47.269 92.2932 47.2839 91.7771 47.2839 91.2021C47.8349 91.2759 48.7583 91.3643 50.0688 91.4823C51.6176 91.615 52.7941 91.7182 53.5982 91.7624L53.5833 91.9983C53.2855 91.9835 53.077 91.9983 52.943 92.0425C52.8089 92.0867 52.7047 92.1605 52.6451 92.2932C52.5856 92.4258 52.5409 92.647 52.5111 92.9419L51.975 98.9129C51.9452 99.2078 51.9601 99.4289 51.9899 99.5764C52.0197 99.7238 52.109 99.827 52.243 99.886C52.3771 99.9449 52.5856 100.004 52.8685 100.033L52.8536 100.269C52.0643 100.181 50.8878 100.063 49.3391 99.9302C48.1477 99.827 47.2988 99.768 46.7925 99.7385C46.8967 99.2225 46.9712 98.7507 47.001 98.3232C47.0308 98.0136 47.0456 97.7629 47.0308 97.5713L47.3137 97.6007C47.3286 98.1315 47.3584 98.5148 47.4328 98.7802C47.4924 99.0456 47.6264 99.2373 47.8349 99.3699C48.0285 99.5026 48.3562 99.5911 48.7732 99.6206L49.7858 99.709C50.0837 99.7385 50.2922 99.7238 50.4262 99.6943C50.5602 99.6648 50.6645 99.5763 50.724 99.4437C50.7836 99.311 50.8283 99.0898 50.8581 98.795L51.1112 95.9642L50.307 95.8905C49.905 95.861 49.622 95.9495 49.4582 96.1854C49.3093 96.4213 49.1901 96.6572 49.1455 96.9078C49.0859 97.1585 49.0561 97.3206 49.0412 97.3943L48.7583 97.3649C48.8178 96.9668 48.8625 96.5982 48.9072 96.2296L48.9519 95.6546C48.9816 95.2418 49.0114 94.6816 49.0412 93.9444L49.3242 93.9739C49.3242 94.0329 49.3391 94.2245 49.3391 94.5636C49.3539 94.9027 49.4284 95.1681 49.6071 95.345C49.7709 95.5367 50.0241 95.6399 50.3517 95.6694L51.1559 95.7431L51.4091 92.8534C51.4389 92.5585 51.424 92.3374 51.3942 92.1899C51.3644 92.0573 51.275 91.9541 51.141 91.8951C51.007 91.8361 50.7985 91.7919 50.5155 91.7624L49.622 91.6887C49.1157 91.6444 48.7285 91.6739 48.4455 91.7919C48.1775 91.8951 47.969 92.1015 47.82 92.3816C47.6711 92.6617 47.552 93.0893 47.4328 93.6495L47.1499 93.6201C47.1499 93.3989 47.1797 93.104 47.2244 92.7502Z" fill="#FF6D6D"/>
<path d="M35.5044 87.2805C35.7278 87.2363 35.981 87.2805 36.249 87.3984C36.5618 87.5311 36.7703 87.7228 36.8894 87.9734C37.0085 88.2388 37.0234 88.6074 36.949 89.0939L36.7256 90.3029C36.6511 90.7304 36.6065 91.0548 36.5916 91.3054C36.5767 91.5413 36.6362 91.7625 36.7405 91.9541C36.8447 92.1458 37.0383 92.2932 37.3213 92.4112L38.3935 92.8535L39.4807 90.2881C39.5998 90.008 39.6594 89.8016 39.6743 89.6542C39.6891 89.5067 39.6296 89.3888 39.5253 89.2856C39.4211 89.1824 39.2424 89.0792 38.9743 88.9612L39.0637 88.7401C39.4062 88.9023 39.8679 89.1087 40.4784 89.3593C41.1188 89.6247 41.6102 89.8163 41.9379 89.9196L41.8485 90.1407C41.5656 90.0375 41.3571 89.9933 41.223 89.9785C41.0741 89.9785 40.955 90.0228 40.8656 90.1407C40.7614 90.2439 40.6571 90.4356 40.538 90.7157L38.1999 96.2444C38.0808 96.5246 38.0212 96.731 38.0063 96.8784C37.9914 97.0258 38.051 97.1438 38.1552 97.247C38.2595 97.3502 38.4382 97.4534 38.7063 97.5861L38.6169 97.8072C38.3042 97.6598 37.8574 97.4534 37.2617 97.2027C36.9639 97.0848 36.6511 96.9521 36.2937 96.8047C35.9363 96.6573 35.698 96.5688 35.564 96.5098C34.9832 96.2592 34.5215 95.9791 34.179 95.64C33.8365 95.3009 33.6429 94.947 33.5535 94.5637C33.4642 94.1804 33.5089 93.8118 33.6727 93.4432C33.7918 93.1483 33.9854 92.883 34.2535 92.6471C34.5215 92.4112 34.8641 92.2343 35.281 92.1458C35.698 92.0573 36.2044 92.0721 36.7554 92.2048L36.6213 92.131C36.3086 91.9394 36.0703 91.7477 35.9214 91.5413C35.7725 91.3497 35.6682 91.1285 35.6385 90.8926C35.5938 90.6567 35.6087 90.3618 35.6682 90.008L35.8767 88.7548C35.9214 88.5042 35.9512 88.3125 35.9512 88.1651C35.9512 88.0177 35.9363 87.8997 35.8916 87.8113C35.8469 87.7228 35.7725 87.6491 35.6682 87.6196C35.5491 87.5606 35.43 87.5606 35.3257 87.5901C35.2215 87.6196 35.0726 87.6933 34.879 87.7965L34.7598 87.6048C35.0279 87.4427 35.281 87.3247 35.5044 87.2805ZM36.249 92.5291C35.8916 92.5733 35.6087 92.706 35.3853 92.9272C35.1619 93.1483 34.9683 93.4432 34.8045 93.8265C34.5513 94.431 34.4918 94.9618 34.6556 95.3893C34.8194 95.8169 35.2215 96.1707 35.8916 96.4508C36.1299 96.554 36.3086 96.5983 36.4575 96.5835C36.5916 96.5835 36.7107 96.5246 36.8149 96.4066C36.9192 96.2887 37.0234 96.097 37.1277 95.8316L38.2893 93.0894L37.5298 92.7798C37.0383 92.5733 36.6065 92.4849 36.249 92.5291Z" fill="#FF6D6D"/>
<path d="M23.8882 89.2853C24.0222 89.3296 24.1562 89.3001 24.2754 89.2264C24.3945 89.1526 24.5583 88.9905 24.7519 88.7546L28.4899 84.0367C28.6835 83.8008 28.8026 83.6092 28.8473 83.4765C28.892 83.3438 28.8771 83.2111 28.8026 83.0931C28.7281 82.9752 28.5792 82.813 28.3558 82.6214L28.5048 82.4297C28.7877 82.6803 29.1749 83.0047 29.6961 83.4027C30.2472 83.8303 30.6641 84.1399 30.9471 84.3316L30.7982 84.5232C30.5599 84.3463 30.3663 84.2431 30.2323 84.2136C30.0982 84.1694 29.9642 84.1841 29.8451 84.2726C29.7259 84.3463 29.5621 84.5085 29.3685 84.7444L25.6306 89.4623C25.437 89.6981 25.3178 89.8898 25.2731 90.0225C25.2285 90.1552 25.2434 90.2879 25.3178 90.4058C25.3923 90.5238 25.5412 90.6859 25.7646 90.8776L25.6157 91.0693C25.3625 90.8481 24.9604 90.5238 24.4094 90.0815C23.8882 89.6834 23.4712 89.3738 23.1733 89.1674L23.3223 88.9757C23.5754 89.1379 23.7541 89.2411 23.8882 89.2853Z" fill="#FF6D6D"/>
<path d="M14.2682 78.7881C14.2086 78.1247 14.3575 77.4612 14.7001 76.8273C15.0575 76.1786 15.5936 75.6036 16.3382 75.0581C17.0679 74.5421 17.7976 74.203 18.5571 74.0703C19.3166 73.9376 20.0166 73.9818 20.6718 74.2325C21.3271 74.4831 21.8781 74.9107 22.31 75.5151C22.7716 76.1343 23.0248 76.7831 23.0844 77.4465C23.144 78.1099 22.995 78.7734 22.6525 79.4074C22.2951 80.0561 21.759 80.6311 21.0144 81.1766C20.2846 81.6926 19.5549 82.0317 18.7954 82.1644C18.0508 82.2971 17.336 82.2528 16.6807 82.0022C16.0255 81.7515 15.4745 81.324 15.0426 80.7343C14.5809 80.1003 14.3277 79.4516 14.2682 78.7881ZM16.502 81.4125C17.0232 81.5157 17.6189 81.4714 18.2742 81.265C18.9295 81.0586 19.5847 80.7195 20.2698 80.2182C20.9548 79.7317 21.4909 79.201 21.8632 78.6407C22.2504 78.0805 22.4589 77.5202 22.4887 76.9895C22.5334 76.4587 22.3993 75.9869 22.1164 75.5888C21.8037 75.176 21.4016 74.9107 20.8654 74.8075C20.3442 74.7042 19.7485 74.7485 19.0933 74.9549C18.438 75.1613 17.7827 75.5004 17.0977 75.9869C16.4127 76.4734 15.8765 77.0042 15.5042 77.5792C15.117 78.1394 14.9085 78.6849 14.8639 79.2304C14.8192 79.7612 14.9532 80.233 15.2362 80.6311C15.5489 81.0439 15.9659 81.3093 16.502 81.4125Z" fill="#FF6D6D"/>
<path d="M15.415 61.0374C15.5937 61.1701 15.7278 61.3913 15.8171 61.6861C15.9214 61.9957 15.9065 62.2906 15.7873 62.5412C15.6682 62.8066 15.3853 63.0573 14.9534 63.3079L13.8662 63.9124C13.4939 64.1335 13.211 64.3105 13.0174 64.4579C12.8238 64.6053 12.6898 64.7822 12.6153 64.9886C12.5408 65.1951 12.5408 65.4309 12.6302 65.7258L12.9727 66.8316L15.6533 66.0059C15.9512 65.9175 16.1448 65.829 16.2639 65.7406C16.383 65.6521 16.4426 65.5341 16.4575 65.4015C16.4724 65.2688 16.4277 65.0476 16.3532 64.7675L16.5915 64.6938C16.6809 65.0476 16.8149 65.5489 17.0234 66.1681C17.2319 66.8316 17.3957 67.3181 17.5148 67.6277L17.2766 67.7014C17.1723 67.4213 17.083 67.2296 16.9936 67.1264C16.9043 67.0232 16.7851 66.9495 16.6362 66.9495C16.4873 66.9495 16.2639 66.979 15.9809 67.0822L10.2028 68.8514C9.90491 68.9399 9.71131 69.0283 9.59217 69.1168C9.47303 69.2052 9.41346 69.3232 9.39857 69.4559C9.38368 69.6033 9.42836 69.8097 9.50282 70.0898L9.26454 70.1635C9.19008 69.8392 9.05605 69.3674 8.86245 68.7482C8.7731 68.4533 8.65396 68.1142 8.53482 67.7604C8.41568 67.4065 8.32633 67.1559 8.28165 67.0232C8.08805 66.4187 8.02849 65.888 8.07316 65.4162C8.11784 64.9444 8.26676 64.5611 8.50504 64.2515C8.74331 63.9419 9.05605 63.7355 9.44325 63.6175C9.74109 63.5291 10.0687 63.4996 10.4261 63.5438C10.7835 63.588 11.1261 63.7355 11.4835 64.0008C11.8409 64.2662 12.1387 64.6495 12.3919 65.1656L12.377 65.0181C12.3323 64.6495 12.3174 64.3547 12.377 64.104C12.4366 63.8534 12.5408 63.647 12.6898 63.4701C12.8536 63.2932 13.0918 63.1015 13.4046 62.9246L14.5066 62.2759C14.73 62.1579 14.9087 62.04 15.0129 61.9515C15.1172 61.8631 15.2065 61.7746 15.2512 61.6861C15.2959 61.5977 15.2959 61.4945 15.2661 61.3913C15.2214 61.2586 15.1619 61.1701 15.0725 61.1112C14.9832 61.0522 14.8342 60.9785 14.6257 60.9047L14.7002 60.6836C14.9981 60.7868 15.2512 60.9047 15.415 61.0374ZM11.8558 64.9886C11.6026 64.7528 11.3048 64.6201 10.992 64.5906C10.6793 64.5611 10.3219 64.6053 9.9198 64.738C9.27943 64.9297 8.84756 65.2393 8.60928 65.6373C8.37101 66.0354 8.37101 66.5809 8.5795 67.2444C8.65396 67.4803 8.74331 67.6572 8.83267 67.7604C8.92202 67.8636 9.05605 67.9226 9.20497 67.9226C9.35389 67.9226 9.57728 67.8783 9.84534 67.8046L12.7046 66.92L12.4664 66.1386C12.3175 65.6079 12.109 65.2245 11.8558 64.9886Z" fill="#FF6D6D"/>
<path d="M14.2681 47.046C14.834 46.7954 15.1765 46.3236 15.3254 45.6159C15.3701 45.3505 15.3701 45.0851 15.2956 44.8345C15.2212 44.5839 15.0871 44.3627 14.8786 44.1711C14.6701 43.9794 14.3872 43.8467 14.0149 43.7877C13.7021 43.7288 13.4192 43.7582 13.1511 43.8614C12.8831 43.9646 12.615 44.1268 12.3618 44.348C12.1087 44.5691 11.8108 44.864 11.4832 45.2326C11.1109 45.6454 10.7833 45.9845 10.5003 46.2204C10.2174 46.471 9.90463 46.6479 9.5621 46.7806C9.21958 46.9133 8.83238 46.9281 8.40051 46.8543C7.95374 46.7659 7.58144 46.6037 7.31338 46.3383C7.04532 46.0729 6.85172 45.7633 6.76236 45.3947C6.67301 45.0262 6.67301 44.6428 6.74747 44.23C6.79215 43.9794 6.85172 43.7877 6.92618 43.6108C7.00064 43.4339 7.0751 43.3012 7.16445 43.198C7.25381 43.0948 7.34316 42.9768 7.4623 42.8589C7.61122 42.6967 7.68568 42.5788 7.71547 42.4903C7.73036 42.4166 7.70057 42.3576 7.62611 42.2987C7.55165 42.2397 7.41762 42.1954 7.23892 42.1365L7.28359 41.8711C7.74525 41.989 8.54943 42.166 9.72592 42.3871L9.68124 42.6525C9.26426 42.6083 8.87706 42.623 8.48986 42.7115C8.11756 42.7852 7.78993 42.9474 7.52187 43.198C7.25381 43.4339 7.0751 43.773 7.00064 44.1858C6.94107 44.4659 6.95596 44.7166 7.03042 44.9672C7.10488 45.2178 7.23892 45.4095 7.41762 45.5717C7.61122 45.7338 7.8346 45.837 8.10266 45.896C8.53454 45.9697 8.90685 45.9108 9.21958 45.7044C9.53232 45.498 9.83016 45.2326 10.1131 44.923C10.3961 44.6134 10.5748 44.4069 10.679 44.3037C11.096 43.8614 11.4385 43.5223 11.7215 43.2717C12.0044 43.0211 12.3172 42.8442 12.6597 42.7262C13.0022 42.6083 13.3745 42.5935 13.7766 42.6672C14.2681 42.7557 14.6701 42.9474 14.968 43.2275C15.2658 43.5223 15.4594 43.8614 15.5637 44.2743C15.6679 44.6871 15.6679 45.1294 15.5786 45.6012C15.5041 45.9845 15.4148 46.2793 15.2807 46.5152C15.1616 46.7511 14.9978 46.9575 14.8191 47.1492C14.6701 47.3114 14.5957 47.4293 14.5659 47.5178C14.551 47.5915 14.5808 47.6505 14.6553 47.7094C14.7297 47.7684 14.8637 47.8274 15.0424 47.8716L14.9978 48.137C14.5659 48.0191 13.6128 47.8274 12.1385 47.562L12.1831 47.2966C13.0171 47.3704 13.7021 47.2966 14.2681 47.046Z" fill="#FF6D6D"/>
<path d="M11.3193 34.6171C10.9023 34.396 10.4258 34.1895 9.88965 33.9831C10.2173 33.4082 10.7683 32.4056 11.5129 30.9755C12.2575 29.5601 12.7787 28.5576 13.0617 27.9531C13.5531 28.2627 13.9999 28.5281 14.402 28.7345C14.7594 28.9262 15.0721 29.0589 15.3104 29.1621L15.1764 29.4127C14.5807 29.1768 14.1339 29.0294 13.8212 28.9852C13.5085 28.9262 13.2255 28.9852 12.9872 29.1326C12.749 29.28 12.5107 29.5749 12.2873 30.0172L11.9895 30.6069L18.1399 33.7767C18.4378 33.9389 18.6761 34.0126 18.8399 34.0274C19.0037 34.0421 19.1526 33.9979 19.2867 33.8799C19.4207 33.762 19.5696 33.5408 19.7483 33.2312L19.9717 33.3492C19.7483 33.7178 19.4654 34.2338 19.1079 34.912C18.7356 35.6197 18.4676 36.1652 18.3038 36.5043L18.0804 36.3863C18.2293 36.062 18.3335 35.8113 18.3484 35.6491C18.3782 35.4722 18.3335 35.3248 18.2144 35.1921C18.0953 35.0594 17.9017 34.9267 17.6038 34.7645L11.4533 31.58L11.1406 32.155C10.9023 32.5973 10.7981 32.9511 10.813 33.2312C10.8279 33.5114 10.947 33.762 11.1704 33.9831C11.3938 34.2043 11.7661 34.4992 12.3022 34.8383L12.1682 35.0889C11.9746 34.9709 11.6767 34.8088 11.3193 34.6171Z" fill="#FF6D6D"/>
<path d="M21.8332 17.6771C22.0863 17.4264 22.2948 17.1905 22.4437 17.0136L22.6224 17.1905C22.5331 17.3232 22.4884 17.5149 22.5033 17.736C22.5182 17.9572 22.5778 18.2668 22.6969 18.6354L24.0521 22.6308L25.6307 24.1789C25.8541 24.3853 26.0179 24.5327 26.1519 24.5917C26.2859 24.6507 26.42 24.6507 26.554 24.5917C26.688 24.5327 26.8518 24.4 27.0752 24.2084L27.2539 24.3853C26.971 24.6359 26.5987 24.9897 26.137 25.4468C25.6456 25.9333 25.2882 26.3166 25.0648 26.5673L24.8861 26.3904C25.0797 26.1692 25.2137 26.007 25.2733 25.8743C25.3328 25.7417 25.3328 25.609 25.2584 25.4763C25.1988 25.3436 25.0499 25.1667 24.8414 24.9603L23.5309 23.6776L18.5569 22.2327C18.259 22.1443 18.0356 22.1148 17.8867 22.1295C17.7378 22.1443 17.6335 22.1885 17.5591 22.2622L17.3804 22.0853C17.6186 21.8789 17.8867 21.643 18.1548 21.3629C18.7058 20.8026 19.1079 20.4046 19.3313 20.1392L19.51 20.3161C19.1079 20.7142 19.0185 21.0238 19.2419 21.2449C19.3313 21.3334 19.4504 21.3924 19.6291 21.4514L23.8138 22.734L22.7118 19.4757C22.548 19.004 22.3842 18.6796 22.2055 18.5174C22.0416 18.3553 21.8629 18.311 21.6693 18.37C21.4757 18.429 21.2524 18.5764 20.9843 18.827L20.8056 18.6501C21.163 18.3258 21.4906 18.0014 21.8332 17.6771Z" fill="#FF6D6D"/>
<path d="M30.8437 11.7352C30.7543 11.8384 30.7097 11.9711 30.7395 12.1186C30.7692 12.266 30.8437 12.4724 30.9926 12.7378L33.8668 18.0159C34.0157 18.2813 34.1349 18.4582 34.254 18.5614C34.3583 18.6646 34.4923 18.6941 34.6263 18.6793C34.7604 18.6646 34.9688 18.5761 35.222 18.4435L36.0113 18.0159C36.4581 17.78 36.7708 17.5294 36.9346 17.2787C37.0984 17.0281 37.158 16.748 37.1133 16.4089C37.0687 16.0698 36.9346 15.6422 36.6964 15.082L36.9495 14.9493C37.0538 15.1852 37.2027 15.48 37.3963 15.8339C37.6197 16.232 37.8877 16.6743 38.2154 17.1608C37.7239 17.3967 36.8899 17.8242 35.7432 18.4435C34.3732 19.1806 33.3307 19.7409 32.6457 20.1389L32.5265 19.9325C32.7797 19.7851 32.9584 19.6524 33.0478 19.5492C33.1371 19.446 33.1818 19.3133 33.152 19.1659C33.1222 19.0184 33.0477 18.812 32.8988 18.5467L29.9948 13.2685C29.8459 13.0032 29.7268 12.8262 29.6076 12.723C29.5034 12.6198 29.3694 12.5904 29.2353 12.6051C29.0864 12.6198 28.8928 12.6936 28.6248 12.8262L28.5205 12.6051C28.8332 12.4724 29.2949 12.2365 29.9055 11.8974C30.4863 11.5878 30.9331 11.3372 31.2458 11.1455L31.3649 11.3519C31.1118 11.4993 30.9479 11.632 30.8437 11.7352Z" fill="#FF6D6D"/>
<path d="M48.982 12.6787C49.0714 13.121 49.2054 13.6223 49.3692 14.1825C48.8182 14.271 47.9098 14.4331 46.629 14.6838C45.0951 14.9787 43.9484 15.2145 43.1591 15.3915L43.1145 15.1556C43.3974 15.0819 43.6059 15.0229 43.725 14.9344C43.8442 14.8607 43.9186 14.7428 43.9335 14.6101C43.9484 14.4626 43.9335 14.2415 43.874 13.9466L42.7124 8.06404C42.6528 7.76917 42.5932 7.56276 42.5039 7.43007C42.4145 7.29738 42.3252 7.22367 42.1763 7.20892C42.0422 7.17944 41.8188 7.19418 41.5359 7.23841L41.4912 7.00252C42.2805 6.86983 43.4421 6.66342 44.9611 6.36856C46.1376 6.13266 46.9716 5.97049 47.4481 5.85254C47.4928 6.3833 47.5672 6.85508 47.6417 7.2679C47.7013 7.57751 47.7608 7.8134 47.8204 7.99032L47.5524 8.04929C47.3885 7.54802 47.2396 7.17944 47.1056 6.94354C46.9716 6.70765 46.778 6.56022 46.5546 6.4865C46.3163 6.41279 46.0036 6.41278 45.5717 6.50124L44.5739 6.69291C44.291 6.75188 44.0825 6.81085 43.9633 6.88457C43.8442 6.95829 43.7697 7.06149 43.7399 7.20892C43.725 7.35636 43.7399 7.57751 43.7995 7.87237L44.3505 10.6736L45.1398 10.5114C45.5419 10.4377 45.7802 10.2608 45.8695 9.99541C45.9589 9.73003 45.9887 9.4794 45.9738 9.22876C45.9589 8.97812 45.944 8.81595 45.944 8.74223L46.2121 8.68326C46.2567 9.08133 46.3163 9.44991 46.3908 9.80375L46.5099 10.364C46.5844 10.7621 46.7184 11.3223 46.912 12.03L46.6439 12.089C46.629 12.03 46.5695 11.8531 46.4652 11.5287C46.361 11.2044 46.2121 10.9832 45.9887 10.8505C45.7653 10.7178 45.5121 10.6883 45.1845 10.7473L44.3952 10.8948L44.9611 13.7402C45.0207 14.0351 45.0802 14.2415 45.1547 14.3742C45.2292 14.4921 45.3334 14.5658 45.4823 14.5953C45.6164 14.6101 45.8397 14.5953 46.1227 14.5364L47.0013 14.3594C47.4928 14.2562 47.8651 14.1235 48.1034 13.9466C48.3416 13.7697 48.4757 13.5191 48.5352 13.2095C48.5948 12.8998 48.5948 12.4575 48.5501 11.8826L48.8182 11.8236C48.8629 12.0447 48.9075 12.3249 48.982 12.6787Z" fill="#FF6D6D"/>
<path d="M38.9444 68.984C38.2593 68.0699 37.6636 67.0674 37.1424 65.9616C36.6212 64.8559 36.2042 63.7354 35.8915 62.5854C35.2064 57.5284 35.1915 52.6189 35.8319 47.8568C36.4723 43.0947 37.5147 38.4064 38.9444 33.7769C39.1826 33.2609 39.7039 33.0103 40.5081 33.0103C41.3122 33.0103 42.1015 33.1872 42.9057 33.5411C43.7099 33.8949 44.3651 34.3667 44.8864 34.9564C45.4076 35.5461 45.5267 36.1654 45.2438 36.7993C44.797 37.7429 44.3651 39.0256 43.9333 40.6178C43.5014 42.2249 43.0695 43.9941 42.6823 45.9254C42.2802 47.8568 41.9377 49.8914 41.6399 51.9997C41.342 54.108 41.1186 56.1426 40.9846 58.0739C40.8506 60.0053 40.8208 61.7598 40.8953 63.3226C40.9697 64.8853 41.208 66.1238 41.6101 67.0231C43.4865 64.5315 45.1991 61.9514 46.7628 59.2829C48.3265 56.6143 49.7859 53.9163 51.156 51.1593C52.5261 48.4171 53.8366 45.6453 55.0727 42.8293C56.3087 40.0281 57.5299 37.2564 58.7213 34.5289C59.317 33.143 59.9126 31.6834 60.4934 30.1501C61.0742 28.602 61.8337 27.2899 62.8017 26.1841C63.2038 25.8303 63.5166 25.7124 63.7251 25.8303C63.9484 25.9482 64.0974 26.1694 64.1718 26.5085C64.2463 26.8476 64.291 27.2014 64.291 27.57C64.291 27.9386 64.291 28.2335 64.291 28.4251C64.008 30.2386 63.7697 32.0372 63.5761 33.8212C63.3825 35.6051 62.9507 37.3153 62.3252 38.9813C61.2827 41.5909 60.2254 44.171 59.1234 46.7511C58.0213 49.3164 56.8448 51.8523 55.5939 54.3439C54.3429 56.8355 52.9729 59.2534 51.5283 61.5976C50.0689 63.9565 48.4903 66.1975 46.7628 68.3205C45.4076 70.016 44.0524 70.9154 42.727 71.0186C41.342 71.1365 40.106 70.4436 38.9444 68.984Z" fill="#FF6D6D" stroke="white" stroke-miterlimit="10"/>
<path d="M63.6061 62.2909C62.8019 61.1851 62.0127 60.0646 61.2383 58.9146C60.4639 57.7647 60.0767 56.5115 60.0767 55.1256C60.0767 53.5923 60.5234 52.1327 61.417 50.7616C62.3105 49.4052 63.3381 48.2995 64.4997 47.4738C64.9762 47.1642 65.4677 46.8988 65.9591 46.7072C66.4505 46.5155 66.9867 46.5303 67.5526 46.7661C67.7908 46.8841 68.044 46.9726 68.2972 47.0315C68.5503 47.0905 68.7886 47.1642 68.9822 47.2379C69.1758 47.3117 69.3992 47.4296 69.6375 47.5918C69.8758 47.7539 69.9949 47.9604 69.9949 48.2405C69.9949 49.3462 70.0247 50.2456 70.0842 50.9385C70.1438 51.6314 70.2332 52.2212 70.3523 52.7224C70.4714 53.2237 70.5906 53.6513 70.7097 54.0199C70.8289 54.4032 70.948 54.8013 71.0671 55.2288C71.1416 55.6269 71.1267 55.966 71.0076 56.2314C70.8884 56.5115 70.5906 56.541 70.114 56.3493C69.2354 56.0397 68.5801 55.4057 68.1631 54.4474C67.7462 53.4891 67.4334 52.634 67.2398 51.8378C67.1952 51.6757 67.1058 51.4103 66.942 51.0122C66.7782 50.6142 66.6888 50.334 66.6441 50.1866C66.3314 50.1129 65.9442 50.2161 65.5123 50.5109C65.0805 50.8058 64.6784 51.2186 64.3507 51.7199C64.0082 52.2359 63.7848 52.8257 63.6955 53.5038C63.5912 54.182 63.7253 54.8455 64.0827 55.5237C64.2465 55.7596 64.4699 56.0544 64.7677 56.3788C65.0656 56.7179 65.3634 57.057 65.6613 57.4108C65.9591 57.7647 66.2569 58.1185 66.5548 58.4429C66.8526 58.7672 67.1058 59.0473 67.2994 59.239C67.5377 59.4749 67.7015 59.6076 67.776 59.6223C67.8504 59.6371 68.0589 59.5928 68.3716 59.4749C68.7737 59.2832 69.3843 59.0178 70.2034 58.7082C71.0225 58.3986 71.8862 58.0743 72.7797 57.7647C73.6733 57.4551 74.537 57.1897 75.3561 56.9685C76.1752 56.7474 76.8006 56.6442 77.2474 56.6442C77.5304 56.6442 77.724 56.7474 77.8431 56.939C77.9622 57.057 77.9474 57.2192 77.7835 57.4108C77.6197 57.6025 77.4112 57.8089 77.1581 58.0006C76.9049 58.1922 76.6219 58.3691 76.3539 58.5313C76.0709 58.6935 75.8922 58.782 75.8178 58.8262C75.1327 59.2243 74.2839 59.6666 73.2414 60.1678C72.1989 60.6544 71.3054 61.1409 70.5459 61.6127C70.4714 61.6864 70.3225 61.7748 70.0991 61.8486C69.8758 61.9223 69.7119 62.0107 69.5928 62.0845C70.0694 63.146 70.4119 64.0748 70.6055 64.8415C70.7991 65.6081 70.8735 66.3453 70.814 67.0677C70.7544 67.7754 70.6055 68.4978 70.3672 69.235C70.1289 69.9721 69.8013 70.8125 69.4141 71.7561C68.8482 72.6702 68.2823 73.54 67.7015 74.3656C67.1207 75.1913 66.4803 75.9432 65.7506 76.6214C65.0358 77.2996 64.2465 77.8303 63.4125 78.2136C62.5786 78.6117 61.6552 78.8034 60.6575 78.8034C60.0916 78.8034 59.5554 78.7297 59.0342 78.597C58.513 78.4643 58.0811 78.1694 57.7237 77.7419C56.8004 76.7541 56.294 75.6778 56.1749 74.5131C56.0558 73.3484 56.16 72.1984 56.4727 71.0484C56.711 70.3407 57.0089 69.692 57.3663 69.0875C58.2449 67.5837 59.2129 66.3158 60.2703 65.269C61.3425 64.237 62.4445 63.2344 63.6061 62.2909ZM65.6464 64.9594C65.1996 65.4017 64.6039 66.0209 63.8444 66.8318C63.0849 67.6427 62.385 68.5273 61.7148 69.4709C61.0596 70.4144 60.5234 71.358 60.1064 72.2868C59.6895 73.2157 59.5852 74.0118 59.7788 74.69C60.583 74.3362 61.4021 73.7464 62.236 72.9355C63.07 72.1247 63.8146 71.2401 64.455 70.267C65.0953 69.2939 65.5421 68.3356 65.7953 67.392C66.0485 66.4337 66.0038 65.6229 65.6464 64.9594Z" fill="#FF6D6D" stroke="white" stroke-miterlimit="10"/>
<path d="M53.896 86.2929C35.2658 86.2929 20.1055 71.2842 20.1055 52.8403C20.1055 34.3964 35.2658 19.3877 53.896 19.3877C72.5262 19.3877 87.6864 34.3964 87.6864 52.8403C87.6864 71.2842 72.5262 86.2929 53.896 86.2929ZM53.896 20.862C36.0848 20.862 21.5947 35.2073 21.5947 52.8403C21.5947 70.4733 36.0848 84.8185 53.896 84.8185C71.7071 84.8185 86.1972 70.4733 86.1972 52.8403C86.1972 35.2073 71.7071 20.862 53.896 20.862Z" fill="#FF6D6D"/>
</g>
</svg>
